<?xml version="1.0" standalone="no"?>
<!DOCTYPE svg PUBLIC "-//W3C//DTD SVG 1.1//EN" "http://www.w3.org/Graphics/SVG/1.1/DTD/svg11.dtd">
<svg xmlns="http://www.w3.org/2000/svg">
<metadata>Copyright (C) 2016 by original authors @ fontello.com</metadata>
<defs>
<font id="fontello" horiz-adv-x="1000" >
<font-face font-family="fontello" font-weight="400" font-stretch="normal" units-per-em="1000" ascent="850" descent="-150" />
<missing-glyph horiz-adv-x="1000" />
<glyph glyph-name="star-half" unicode="&#xe001;" d="M464 832v-747l-250-132q-13-7-23-7-11 0-17 9t-6 19q0 4 1 12l48 279-203 197q-14 15-14 27 0 21 31 26l280 40 126 254q11 23 27 23z" horiz-adv-x="500" />

<glyph glyph-name="star-half-alt" unicode="&#xe002;" d="M662 316l143 139-198 29-37 6-17 34-89 179v-537l33-17 178-94-34 198-7 37z m252 146l-202-197 47-279q3-19-3-29t-19-11q-9 0-22 7l-251 132-250-132q-13-7-23-7-12 0-19 11t-3 29l48 279-203 197q-18 18-13 33t30 20l280 40 126 254q11 23 27 23 16 0 28-23l125-254 280-40q25-4 30-20t-13-33z" horiz-adv-x="928.6" />

<glyph glyph-name="star" unicode="&#xe003;" d="M929 489q0-12-15-27l-203-197 48-279q1-4 1-12 0-11-6-19t-17-9q-10 0-22 7l-251 132-250-132q-13-7-23-7-11 0-17 9t-6 19q0 4 1 12l48 279-203 197q-14 15-14 27 0 21 31 26l280 40 126 254q11 23 27 23t28-23l125-254 280-40q32-5 32-26z" horiz-adv-x="928.6" />

<glyph glyph-name="star-empty" unicode="&#xe004;" d="M634 290l171 165-235 35-106 213-105-213-236-35 171-165-41-235 211 111 211-111z m295 199q0-12-15-27l-203-197 48-279q1-4 1-12 0-28-23-28-10 0-22 7l-251 132-250-132q-13-7-23-7-11 0-17 9t-6 19q0 4 1 12l48 279-203 197q-14 15-14 27 0 21 31 26l280 40 126 254q11 23 27 23t28-23l125-254 280-40q32-5 32-26z" horiz-adv-x="928.6" />

<glyph glyph-name="technology-group" unicode="&#xe005;" d="M939 405c0-44-6-84-19-120-12-35-29-65-51-89-22-24-47-43-77-55-29-13-61-19-94-19-32 0-57 7-77 21-20 13-32 31-35 54h-5c-11-18-28-35-52-51-23-16-52-24-88-24-26 0-50 5-71 15-21 9-38 23-53 41-14 17-25 38-33 63-8 24-12 51-12 80 0 33 5 65 16 97 10 31 26 60 46 84 20 25 43 45 71 60 27 16 58 23 93 23 29 0 54-6 74-18 19-13 32-28 37-45h2l8 40h127l-37-185c-4-19-7-37-10-54-3-17-5-32-5-44 0-11 2-20 7-29 5-9 14-13 27-13 24 0 45 14 63 41 19 27 28 68 28 123 0 45-8 85-23 120-14 35-35 64-62 88-28 23-60 41-97 53-37 12-78 19-123 19-48 0-91-9-131-26-40-17-74-40-102-69-28-30-50-65-66-105-15-41-23-85-23-132 0-50 8-95 25-135 16-40 39-74 70-103 30-28 65-50 107-65s86-23 135-23c57 0 107 9 152 27 44 17 84 42 119 74l74-82c-46-45-99-78-159-98-61-21-127-32-199-32-66 0-127 11-183 33-56 21-103 51-143 90-40 38-72 84-94 138-22 54-33 112-33 176 0 63 11 121 35 174 24 53 57 99 97 139 41 39 89 70 144 92 55 22 114 34 176 34 55 0 108-9 160-25 51-16 96-40 135-72 39-32 70-72 93-119 24-48 36-103 36-167z m-364-26c0 12-1 24-3 35-2 10-5 20-10 29-4 9-11 15-20 20-8 6-19 8-33 8-14 0-28-4-40-13-11-9-21-21-30-36-9-14-15-30-20-48-5-18-7-36-7-53 0-20 4-39 13-56 9-18 26-27 52-27 17 0 32 5 44 14 13 9 23 20 31 35 8 14 13 29 17 45 4 17 6 33 6 47z" horiz-adv-x="1000" />

<glyph glyph-name="trends" unicode="&#xe800;" d="M500 850c-276 0-500-224-500-500s224-500 500-500 500 224 500 500-224 500-500 500z m208-810l-207 109-207-109 39 230-167 164 231 33 104 210 104-210 231-33-167-164 39-230z" horiz-adv-x="1000" />

<glyph glyph-name="home-1" unicode="&#xe801;" d="M521 819q322-279 500-429 20-16 20-40 0-21-15-37t-36-15l-105 0 0-364q0-21-15-37t-36-16l-156 0q-22 0-37 16t-16 37l0 208-209 0 0-208q0-21-15-37t-36-16l-156 0q-21 0-37 16t-16 37l0 364-103 0q-22 0-37 15t-16 37 19 40z" horiz-adv-x="1041" />

<glyph glyph-name="edit-1" unicode="&#xe802;" d="M994 741q4-9 7-21t3-26-5-26-17-24q-11-13-21-21t-17-16l-14-15-188 188q13 10 29 26t28 25q14 10 29 15t29 4 28-5 23-9q22-10 47-38t39-57z m-778-489q6 7 28 30t55 54l73 74 81 81 215 215 187-188-215-215-80-81q-40-39-72-72t-53-53-25-24q-11-9-23-19t-28-16q-13-7-40-17t-57-20-56-16-39-9q-27-3-36 8t-5 37q2 14 9 40t16 56 17 52 13 33q6 14 13 25t22 25z" horiz-adv-x="1003.9" />

<glyph glyph-name="cancel-1" unicode="&#xe803;" d="M500 819c-259 0-469-210-469-469s210-469 469-469 469 210 469 469-210 469-469 469z m-1-834c-201 0-364 164-364 365s163 365 364 365 365-164 365-365-163-365-365-365z m84 367l102 102c23 23 23 60 0 83-23 23-60 23-83 0l-101-102-102 102c-23 23-60 23-83 0-23-23-23-60 0-83l102-102-102-101c-23-23-23-60 0-83 23-23 60-23 83 0l102 102 101-102c23-23 60-23 83 0 23 23 23 60 0 83l-102 101z" horiz-adv-x="1000" />

<glyph glyph-name="heart" unicode="&#xe804;" d="M500-79q-14 0-25 10l-348 336q-5 5-15 15t-31 36-38 55-30 67-13 77q0 123 71 192t196 70q34 0 70-12t67-33 54-38 42-38q20 20 42 38t54 38 67 33 70 12q125 0 196-70t71-192q0-123-128-251l-347-335q-10-10-25-10z" horiz-adv-x="1000" />

<glyph glyph-name="message-2" unicode="&#xe805;" d="M902 737h-804c-32 0-57-26-57-57v-660c0-31 25-57 57-57h804c32 0 57 26 57 57v660c0 31-25 57-57 57z m-776-57h748c16 0 28-13 28-28v-122l-402-232-398 230c-1 1-3 1-4 2v122c0 15 12 28 28 28z m748-660h-748c-16 0-28 13-28 28v411l386-224c2-1 3-1 4-1 2-1 4-2 6-2 2-1 4-1 6-1 2 0 4 0 6 1 2 0 4 1 6 2 1 0 2 0 4 1l386 223v-410c0-15-12-28-28-28z" horiz-adv-x="1000" />

<glyph glyph-name="help-circled-1" unicode="&#xe806;" d="M500 82v107q0 8-5 13t-13 5h-107q-8 0-13-5t-5-13v-107q0-8 5-13t13-5h107q8 0 13 5t5 13z m143 375q0 49-31 91t-77 65-95 23q-136 0-207-119-9-14 4-24l74-55q4-4 10-4 9 0 14 7 30 38 48 51 19 14 48 14 27 0 48-15t21-33q0-21-11-34t-38-25q-35-16-65-48t-29-70v-20q0-8 5-13t13-5h107q8 0 13 5t5 13q0 10 12 27t30 28q18 10 28 16t25 19 25 27 16 34 7 45z m214-107q0-117-57-215t-156-156-215-58-216 58-155 156-58 215 58 215 155 156 216 58 215-58 156-156 57-215z" horiz-adv-x="857.1" />

<glyph glyph-name="bell-alt-1" unicode="&#xe807;" d="M509-96q0 8-9 8-33 0-57 24t-23 57q0 9-9 9t-9-9q0-41 29-70t69-28q9 0 9 9z m455 160q0-29-21-50t-50-21h-250q0-59-42-101t-101-42-101 42-42 101h-250q-29 0-50 21t-21 50q28 24 51 49t47 67 42 89 27 114 11 146q0 84 66 157t171 89q-5 10-5 21 0 23 16 38t38 16 38-16 16-38q0-11-5-21 106-16 171-89t66-157q0-78 11-146t27-114 42-89 47-67 51-49z" horiz-adv-x="1000" />

<glyph glyph-name="spin5-1" unicode="&#xe808;" d="M462 850c-6 0-11-5-11-11l0-183 0 0c0-6 5-11 11-11l69 0c1 0 1 0 1 0 7 0 12 5 12 11l0 183 0 0c0 6-5 11-12 11l-69 0c0 0 0 0-1 0z m250-47c-4 1-8-2-10-5l-91-158 0 0c-4-6-2-13 4-16l60-35c0 0 0 0 0 0 6-3 13-1 16 4l91 158c3 6 2 13-4 16l-61 35c-1 1-3 1-5 1z m-428-2c-2 0-4-1-6-2l-61-35c-5-3-7-10-4-16l91-157c0 0 0 0 0 0 3-6 10-8 16-5l61 35c5 4 7 11 4 16l-91 157c0 1 0 1 0 1-2 4-6 6-10 6z m620-163c-2 0-4 0-6-1l-157-91c0 0 0 0 0 0-6-3-8-10-5-16l35-61c4-5 11-7 16-4l157 91c1 0 1 0 1 0 6 3 7 10 4 16l-35 61c-2 3-6 5-10 5z m-810-4c-5 0-9-2-11-6l-35-61c-3-5-1-12 4-15l158-92 0 0c6-3 13-1 16 5l35 60c0 0 0 0 0 0 3 6 1 13-4 16l-158 91c-2 1-4 2-5 2z m712-235l0 0c-6 0-11-5-11-11l0-69c0-1 0-1 0-1 0-7 5-12 11-12l183 0 0 0c6 0 11 5 11 12l0 69c0 0 0 0 0 1 0 6-5 11-11 11l-183 0z m-794-5l0 0c-7 0-12-5-12-12l0-69c0 0 0 0 0-1 0-6 5-11 12-11l182 0 0 0c6 0 11 5 11 11l0 69c0 1 0 1 0 1 0 7-5 12-11 12l-182 0z m772-153c-4 0-8-2-10-6l-34-60c-1 0-1 0-1 0-3-6-1-13 4-16l158-91c6-3 13-2 16 4l35 61c3 5 1 12-4 15l-158 91 0 0c-2 1-4 2-6 2z m-566-5c-1 0-3 0-5-1l-157-91c0 0-1 0-1 0-5-3-7-11-4-16l35-61c3-5 10-7 16-4l157 91c0 0 0 0 0 0 6 3 8 10 5 16l-35 61c-3 3-7 5-11 5z m468-121c-2 0-4 0-6-1l-61-35c-5-4-7-11-4-16l91-157c0-1 0-1 0-1 3-6 11-7 16-4l61 35c5 3 7 10 4 16l-91 157c0 0 0 0 0 0-2 4-6 6-10 6z m-367-3c-4 1-8-2-10-5l-91-158c-3-6-1-13 4-16l61-35c5-3 12-1 15 4l92 158 0 0c3 6 1 13-5 16l-60 34c0 1 0 1 0 1-2 1-4 1-6 1z m149-57c-7 0-12-5-12-11l0-183 0 0c0-6 5-11 12-11l69 0c0 0 0 0 1 0 6 0 11 5 11 11l0 183 0 0c0 6-5 11-11 11l-69 0c-1 0-1 0-1 0z" horiz-adv-x="1000" />

<glyph glyph-name="search-1" unicode="&#xe809;" d="M926-44l-202 203q89 105 89 242 0 155-110 265t-265 110-266-110-109-265 109-265 266-110q136 0 242 89l202-203q7-6 15-9t17-1 15 8q2 1 3 4t3 5 1 5 1 6v6q0 2-1 5t-3 6-3 5-4 4z m-488 132q-130 0-222 92t-91 221 91 221 222 91 221-91 91-221-91-221-221-92z" horiz-adv-x="1000" />

<glyph glyph-name="down-dir-1" unicode="&#xe80a;" d="M571 457q0-14-10-25l-250-250q-11-11-25-11t-25 11l-250 250q-11 11-11 25t11 25 25 11h500q14 0 25-11t10-25z" horiz-adv-x="571.4" />

<glyph glyph-name="up-dir-1" unicode="&#xe80b;" d="M571 171q0-14-10-25t-25-10h-500q-15 0-25 10t-11 25 11 26l250 250q10 10 25 10t25-10l250-250q10-11 10-26z" horiz-adv-x="571.4" />

<glyph glyph-name="calendar" unicode="&#xe80c;" d="M627 654h-261v57h261v-57z m272 57h-84v-57h55c16 0 29-13 29-28v-610c0-16-13-29-29-29h-748c-15 0-28 13-28 29v610c0 15 13 28 28 28h56v57h-84c-31 0-57-26-57-57v-667c0-31 26-57 57-57h805c31 0 56 26 56 57v667c0 31-25 57-56 57z m-178-106c17 0 31 14 31 32v125c0 17-14 31-31 31-17 0-31-14-31-31v-125c0-18 14-32 31-32z m-449 0c17 0 31 14 31 32v125c0 17-14 31-31 31-17 0-31-14-31-31v-125c0-18 14-32 31-32z m16-164h-75v75h75v-75z m164 0h-75v75h75v-75z m164 0h-75v75h75v-75z m164 0h-75v75h75v-75z m-492-166h-75v75h75v-75z m164 0h-75v75h75v-75z m164 0h-75v75h75v-75z m164 0h-75v75h75v-75z m-492-168h-75v75h75v-75z m164 0h-75v75h75v-75z" horiz-adv-x="1000" />

<glyph glyph-name="file-open" unicode="&#xe80d;" d="M835 474q19-2 38-10t33-22 21-37 2-53q-2-8-8-40t-14-72-18-85-19-74q-5-18-14-37t-25-35-36-25-50-10h-554q-21 0-43 9t-42 25-31 40-11 53v429q0 61 32 95t94 35h491q22 0 46-9t42-23 31-35 12-43v-10h-52q-40 0-93 0t-114 0-113 1-91 0h-46q-26 0-40-16t-23-44q-8-29-18-62t-18-60q-10-33-20-64-2-8-2-13 0-17 11-29t29-11q31 0 42 39l53 194q130-1 238-1h280z" horiz-adv-x="1000" />

<glyph glyph-name="crop-1" unicode="&#xe80e;" d="M311 136h332v332z m-25 25l332 332h-332v-332z m643-43v-107q0-8-5-13t-13-5h-125v-125q0-8-5-13t-13-5h-107q-8 0-13 5t-5 13v125h-482q-8 0-13 5t-5 13v482h-125q-8 0-13 5t-5 13v107q0 8 5 13t13 5h125v125q0 7 5 12t13 5h107q8 0 13-5t5-12v-125h475l137 138q5 5 13 5t13-5q5-6 5-13t-5-13l-138-137v-475h125q8 0 13-5t5-13z" horiz-adv-x="928.6" />

<glyph glyph-name="add-2" unicode="&#xe80f;" d="M169 681c-184-183-184-479 0-662s479-184 663 0 183 479 0 662-480 184-663 0z m566-272c32 0 58-27 58-59 0-32-26-59-58-58l-176 0v-176c0-33-27-59-59-59-32 0-59 26-59 58v176l-176 0c-32 0-58 27-58 59 0 32 26 59 58 59l176 0v176c0 32 27 58 59 58 32 0 59-26 59-58v-176l176 0z" horiz-adv-x="1000" />

<glyph glyph-name="delete-1" unicode="&#xe810;" d="M169 681c-184-183-184-479 0-662s479-184 663 0 183 479 0 662-480 184-663 0z m566-272c32 0 58-27 58-59 0-32-26-59-58-58h-470c-32 0-58 26-58 58 0 32 26 59 58 59h470z" horiz-adv-x="1000" />

<glyph glyph-name="affirm-3" unicode="&#xe811;" d="M916 645c-24 24-64 24-88 0l-421-421-238 237c-24 25-64 25-88 0-25-24-25-64 0-88l262-263c13-12 35-32 64-32 28 0 49 19 62 31l447 448c25 24 25 64 0 88z" horiz-adv-x="1000" />

<glyph glyph-name="max" unicode="&#xe812;" d="M875 756h-750c-34 0-62-28-62-62v-688c0-34 28-62 62-62h750c35 0 63 28 63 62v688c0 34-28 62-63 62z m-62-125v-562h-625v562h625z" horiz-adv-x="1000" />

<glyph glyph-name="affirm-1" unicode="&#xe813;" d="M651 488l-194-194-108 108c-23 23-60 23-83 0-23-22-23-60 0-82l149-150c12-11 27-17 42-17 16 0 31 6 43 17l234 235c23 23 23 60 0 83-23 23-60 23-83 0z m-151 331c-259 0-469-210-469-469s210-469 469-469 469 210 469 469-210 469-469 469z m0-834c-201 0-365 164-365 365s164 365 365 365 365-164 365-365-164-365-365-365z" horiz-adv-x="1000" />

<glyph glyph-name="share-1" unicode="&#xe814;" d="M650 200q62 0 106-43t44-107q0-62-44-106t-106-44-106 44-44 106q0 6 1 14t1 12l-260 156q-42-32-92-32-62 0-106 44t-44 106 44 106 106 44q54 0 92-30l260 156q0 4-1 12t-1 12q0 62 44 106t106 44 106-43 44-107q0-62-44-106t-106-44q-52 0-90 32l-262-156q2-8 2-26 0-16-2-24l262-156q36 30 90 30z" horiz-adv-x="800" />

<glyph glyph-name="calendar-1" unicode="&#xe815;" d="M344 631h-125v188h125v-188z m500 63v-123h-250v123h-188v-123h-250v123h-125v-813h938v813h-125z m0-688h-688v438h688v-438z m-63 625h-125v188h125v-188z" horiz-adv-x="1000" />

<glyph glyph-name="attach-3" unicode="&#xe816;" d="M325-96q-127 0-217 90t-90 218 90 217l311 303q63 64 158 64t157-64q65-66 65-158t-65-157l-279-274q-41-41-98-40t-99 42-41 98 41 98l108 108 79-78-109-109q-7-7-7-19 0-13 7-21 19-19 40 0l279 274q33 32 33 79t-33 78q-31 31-79 31t-79-31l-311-303q-56-57-56-138t57-138q55-56 138-56t138 56l139 139 80-79-140-140q-90-90-217-90z" horiz-adv-x="817" />

<glyph glyph-name="chinese" unicode="&#xe817;" d="M957 350c-5 2-9 4-14 5v5h-14v5c-48-2-95-3-143-5 3 9 6 19 9 28 5 4 10 7 15 10v10c3 1 6 3 9 4v10c7 5 13 9 19 14v10h5c5 5 3 9 9 14v47c-7 7-15 13-23 19v5c-7 2-13 3-19 5-2 3-3 6-5 9h-10c-23 14-46 25-85 24 10 43 48 58 66 90h10c3 10-1 4 5 10 0 35-1 64-15 85h-4c-3 5-7 10-10 15-13 3-22 11-33 14h-52c-5-6-13-9-19-14-2-3-3-7-5-10h-10c-3-5-6-9-9-14h-10c-1-3-3-6-4-9-7-2-13-4-19-5-2-3-3-7-5-10h-10v-4c-8-2-15-4-23-5v-5c-15-3-29-6-43-10v-23h9c7-8 13-16 19-24h5v-10l10-9c13-10 31-13 47-19-1-8-3-16-5-24h-4c-6-17 1-31-10-43-14-22-54-27-81-38v-4h-14v-5h-9v-5c-11-2-23-3-34-5-1 0-4-7-9-9 1-53 34-42 52-71h52c-22-51-47-109-114-115 4 34 20 51 19 91h-19c-3-15-13-22-19-34-3-9-6-19-9-28h-5c-1-10-3-19-5-29h-4v-9h-5c-2-10-3-19-5-29h-5c-4-10-12-49-19-52-8-4-14 5-14 5-17 4-56 0-66-5v-5h-10c-13-9-25-19-38-28l-5-14c-8-7-15-13-23-19-2-5-4-10-5-15h-5v-4c-19 9-38 19-57 28v5h-24c2-16 4-32 5-48 3-1 6-3 10-4v-10h4c2-6 4-13 5-19h5v-14h5v-29h4v-4h-4v-19h4v-29h5v-10h5c1-4 3-9 5-14 9-3 4 1 9-5 18 0 36 1 48 5 6 16 17 50 9 76-1 6-14 43-9 53 3 1 6 3 9 4 2 5 3 10 5 15h5c6 8 11 11 14 23 21 6 24 22 52 24-1-11-3-22-5-33h-4v-10h-5v-14c-3-1-6-3-10-5v-14c-3-1-6-3-9-5 1-15 3-31 5-47 9-8 18-21 23-33h29v4c5 3 9 7 14 10v9c3 2 6 4 10 5v10c3 1 6 3 9 4v10h5c1 6 3 13 5 19h4c2 9 4 19 5 28h5c3 18 6 35 9 53h5c2 12 3 25 5 38h5v19h4c2 11 4 22 5 33h5c7 5 18-4 24-14 12 1 25 3 38 4v5h9v5c8 1 16 3 24 5v4h9v5h15v5h9v5c8 1 16 3 24 4v5c14 3 28 6 43 10v4c15 4 31 7 47 10 24 8 49 19 81 19v-5c-10-1-19-3-29-5v-4c-6-2-12-4-19-5v-5h-14v-5l-28-9v-19c42 9 85 19 128 28h43c47 0 96-3 137-4 5 5 13 10 19 14-1 47-20 38-28 66z m-299 0h-10v-4h-9v-5c-10-2-19-3-29-5v-5h-5c2 7 4 13 5 19 3 2 7 4 10 5 1 7 3 13 4 19 4 2 7 3 10 5v9l9 10v10h5v9h5v10c2 3 17 27 19 28 12 9 28 7 38 19h14c4-6 3-6 10-9-2-41-50-98-76-115z m-452 248v4h10v5h14v5c6 1 13 3 19 5v4h14v5c7 2 13 3 19 5v5h19v4c24 8 45-5 62 10 14 4 14 8 24 14 0 9 5 16 5 19h-5c-2 10-3 19-5 29-29 6-41 33-66 43-19-2-38-4-57-5v-5c-24-2-48-3-72-5v-9h5c11-14 5-3 14-10v-4c11-10 23-19 34-29v-14c-13-4-16-8-24-15v-4h-10c-3-5-6-10-9-15h-10c-3-4-6-9-9-14h-10c-3-5-6-9-9-14h-10l-4-10c-17-11-32-10-38-33 34 2 60 18 85 29h14z m-109-167c17 2 44 8 57 15v4h10v5c8 2 15 3 23 5v5h10v4c9 2 19 3 28 5v5h15v5h14v4h14v5h14v5c11 1 23 3 34 5v4c11 2 22 4 33 5v5h19v5h24v4c19 4 38 7 57 10v5h4c-3 6-4 9-9 14v9c-4 6-17 6-24 10v5h-9v4c-16 7-79 18-105 10-52-21-104-41-157-62h-19v-5h-19v-4h-23v-5h-53v-5c-6-1-12-3-19-5v-14c7-3 13-6 19-9v-10h5c3-5 6-9 10-14 4-2 9-3 14-5 3-5 6-9 9-14 8-2 16-3 24-5v-5z m100-76c-2-3-3-6-5-9-13-10-19-6-24-24 17 4 26 12 38 19h10v5h9v4c10 2 19 4 29 5 33 14 66 29 100 43 1 3 3 6 4 10h10c8 5 12 17 24 23-1 13-2 16-5 24-6 2-13 3-19 5v5h-29v4h-19v-4c-15-4-31-7-47-10-2-3-3-6-5-9h-14v-5c-6-2-13-3-19-5v-5h-14v-4h-10v-5c-16-3-32-7-47-10 0 0-6-7-10-9v-14c22-3 29-13 52-15 4-5 0 0 5-4v-10c-5-2-9-3-14-5z m-10-142c-9-16-23-23-28-43 12 3 15 7 24 14v5c4 1 9 3 14 5 1 3 3 6 5 9h9c2 3 3 6 5 10h9c4 4 7 9 10 14 6 1 13 3 19 5l5 9c6 2 12 3 19 5 1 3 3 6 4 9 34 15 67 29 100 43-3 29-11 17-28 29v4c-7 6-9 8-19 10-10 8-37 5-48 0v-5h-9v-5c-7-1-13-3-19-4v-5h-10v-5h-9v-5h-10v-4h-9v-5h-10v-5c-6-1-13-3-19-5v-4h-9v-5c-10-2-19-3-29-5v-5h-43v5c-8-1-16-3-23-5 3-35 54-80 99-61z m646-5v5h-14v4c-6 2-12 4-19 5v5h-19v5h-24v4c-19 6-45-5-57-9h-19v-5h-14v-5h-14v-4h-14v-5h-15v-5h-14v-5h-19v-4h-9v-5h-15c-8-3-25-18-38-14v4h-14c-1 4-3 7-5 10h-19v5c-11-1-11-2-19-5 0-117 16-239 95-276v-5c5 2 10 4 15 5 3 14 9 22 14 33 8 2 16 4 24 5v5c18 6 114-1 128-5v-5c13-1 25-3 38-4v4c30 10 6 52 14 72h5v9c3 2 6 3 9 5v10c4 1 7 3 10 4v10h5c1 5 3 9 4 14 4 2 7 3 10 5v9c5 3 9 7 14 10v9c3 2 6 3 10 5 5 9 0 11 9 19 1 20 1 38-9 48-6 19-17 24-34 33z m-90-100h-5v-9h-4v-10h-5c-2-6-3-13-5-19h-5c-4-6-9-13-14-19-13-3-22-11-33-14h-29v-5h-14v-5c-16-5-31-2-43 0-1 28-13 42-14 72 14 4 29 9 43 14v5c9 1 19 3 28 4v5c10 3 19 6 29 10v4h9v5h10v5h9v5c4 1 35 11 38 9v-5c5-1 10-3 15-4-1-22-2-33-10-48z" horiz-adv-x="1000" />

<glyph glyph-name="reply-1" unicode="&#xe818;" d="M0 380q0 6 3 13t7 10l3 3 377 274q20 16 35 6t15-41v-111l27-2q96-8 181-54t146-117 94-166 33-196q-61 107-161 175t-223 78q-49 4-97-1v-138q0-29-15-40t-35 6l-377 274q-13 11-13 26z" horiz-adv-x="920.9" />

<glyph glyph-name="down-open-2" unicode="&#xe819;" d="M0 533q0 25 18 43t44 18 42-18l305-303 304 303q18 18 43 18t43-18q18-18 18-43t-18-43l-390-391-391 391q-18 19-18 43z" horiz-adv-x="817.4" />

<glyph glyph-name="left-open-2" unicode="&#xe81a;" d="M0 353l391 391q18 18 43 18 24 0 43-18 18-18 18-44t-18-43l-304-304 304-305q18-17 18-43t-18-43q-18-18-43-18t-43 18z" horiz-adv-x="495.1" />

<glyph glyph-name="right-open-2" unicode="&#xe81b;" d="M0 0q0 25 18 43l305 304-305 304q-18 18-18 44t18 43 44 18 43-18l390-391-390-391q-19-18-43-18t-44 18q-18 18-18 44z" horiz-adv-x="495.1" />

<glyph glyph-name="up-open-2" unicode="&#xe81c;" d="M0 167q0 26 18 43l391 391 390-391q17-17 17-43 0-26-17-44-18-17-44-17t-43 17l-303 305-305-305q-18-17-43-17t-43 17q-18 18-18 44z" horiz-adv-x="816.9" />

<glyph glyph-name="camera-1" unicode="&#xe81d;" d="M536 475q66 0 113-47t47-114-47-113-113-47-114 47-47 113 47 114 114 47z m393 232q59 0 101-42t41-101v-500q0-59-41-101t-101-42h-786q-59 0-101 42t-42 101v500q0 59 42 101t101 42h125l28 76q11 27 39 47t58 20h286q29 0 57-20t39-47l29-76h125z m-393-643q103 0 176 74t74 176-74 177-176 73-177-73-73-177 73-176 177-74z" horiz-adv-x="1071.4" />

<glyph glyph-name="logout" unicode="&#xe81e;" d="M760 652q45-31 79-71t59-87 38-98 12-105q0-91-35-171t-95-140-139-95-172-35q-91 0-171 35t-140 95-95 140-35 171q0 52 13 103t35 95 56 85 75 71q22 16 47 12t41-25 12-46-26-42q-61-45-94-110t-34-143q0-65 25-123t68-100 100-68 123-25 123 25 100 68 68 100 25 123q0 78-35 146t-99 112q-23 15-27 41t11 47q15 21 40 25t47-10z m-253-363q-26 0-44 18t-18 44v374q0 25 18 44t44 19q26 0 45-19t18-44v-374q0-26-18-44t-45-18z" horiz-adv-x="1000" />

<glyph glyph-name="cog-2" unicode="&#xe81f;" d="M571 350q0 59-41 101t-101 42-101-42-42-101 42-101 101-42 101 42 41 101z m286 61v-124q0-7-4-13t-11-7l-104-16q-10-30-21-51 19-27 59-77 6-6 6-13t-5-13q-15-21-55-61t-53-39q-7 0-14 5l-77 60q-25-13-51-21-9-76-16-104-4-16-20-16h-124q-8 0-14 5t-6 12l-16 103q-27 9-50 21l-79-60q-6-5-14-5-8 0-14 6-70 64-92 94-4 5-4 13 0 6 5 12 8 12 28 37t30 40q-15 28-23 55l-102 15q-7 1-11 7t-5 13v124q0 7 5 13t10 7l104 16q8 25 22 51-23 32-60 77-6 7-6 14 0 5 5 12 15 20 55 60t53 40q7 0 15-5l77-60q24 13 50 21 9 76 17 104 3 15 20 15h124q7 0 13-4t7-12l15-103q28-9 50-21l80 60q5 5 13 5 7 0 14-5 72-67 92-95 4-5 4-13 0-6-4-12-9-12-29-38t-30-39q14-28 23-55l102-15q7-1 12-7t4-13z" horiz-adv-x="857.1" />

<glyph glyph-name="underway" unicode="&#xe820;" d="M500 819c-259 0-469-210-469-469s210-469 469-469 469 210 469 469-210 469-469 469z m-162-726v514l445-257-445-257z" horiz-adv-x="1000" />

<glyph glyph-name="male-1" unicode="&#xe821;" d="M545 282c0-68-55-123-123-123-68 0-123 55-123 123 0 67 55 122 123 122 68 0 123-55 123-122z m-45 537c-259 0-469-210-469-469s210-469 469-469 469 210 469 469-210 469-469 469z m260-389c0-22-18-41-41-41-22 0-41 19-41 41v53l-87-87c22-32 36-72 36-114 0-113-92-205-205-205-113 0-204 92-204 205s91 204 204 204c41 0 79-12 110-33l88 88h-57c-23 0-41 18-41 41 0 23 18 41 41 41h156c5 0 11-1 16-3 10-4 18-12 22-22 2-5 3-11 3-16v-152z" horiz-adv-x="1000" />

<glyph glyph-name="left-open-3" unicode="&#xe822;" d="M242 626q14 16 39 16t41-16q38-36 0-80l-186-196 186-194q38-44 0-80-16-16-40-16t-40 16l-226 236q-16 16-16 38 0 24 16 40 206 214 226 236z" horiz-adv-x="341" />

<glyph glyph-name="down-open-3" unicode="&#xe823;" d="M564 422l-234-224q-18-18-40-18t-40 18l-234 224q-16 16-16 41t16 41q38 38 78 0l196-188 196 188q40 38 78 0 16-16 16-41t-16-41z" horiz-adv-x="580" />

<glyph glyph-name="right-open-3" unicode="&#xe824;" d="M98 626l226-236q16-16 16-40 0-22-16-38l-226-236q-16-16-40-16t-40 16q-36 36 0 80l186 194-186 196q-36 44 0 80 16 16 41 16t39-16z" horiz-adv-x="340" />

<glyph glyph-name="up-open-3" unicode="&#xe825;" d="M564 280q16-16 16-41t-16-41q-38-38-78 0l-196 188-196-188q-40-38-78 0-16 16-16 41t16 41l234 224q16 16 40 16t40-16z" horiz-adv-x="580" />

<glyph glyph-name="cancel-2" unicode="&#xe826;" d="M500 819c-259 0-469-210-469-469s210-469 469-469 469 210 469 469-210 469-469 469z m207-593c23-23 23-60 0-83-23-23-60-23-83 0l-124 124-124-124c-23-23-60-23-83 0-23 23-23 60 0 83l124 124-124 124c-23 23-23 60 0 83 23 23 60 23 83 0l124-124 124 124c23 23 60 23 83 0 23-23 23-60 0-83l-124-124 124-124z" horiz-adv-x="1000" />

<glyph glyph-name="delete" unicode="&#xe827;" d="M906 631h-156v63q0 39-27 66t-66 28h-313q-39 0-67-28t-27-66v-63h-156q-13 0-22-9t-9-22 9-22 22-9h812q13 0 22 9t10 22-10 22-22 9z m-125-125h-562q-13 0-23-8-8-9-8-23v-469q0-39 27-66t66-28h438q39 0 66 28t28 66v469q0 13-10 22t-22 9z m-343-437q0-13-10-22t-22-9-22 9-9 22v344q0 12 9 22t22 9 22-9 10-22v-344z m187 0q0-13-9-22t-22-9-22 9-9 22v344q0 12 9 22t22 9 22-9 9-22v-344z" horiz-adv-x="1000" />

<glyph glyph-name="search-2" unicode="&#xe828;" d="M908 41q28-32 31-56t-19-47q-23-28-53-26t-56 24l-168 162q-45-29-97-45t-107-16q-79 0-147 29t-119 81-80 119-29 146 29 146 80 119 119 80 146 30 146-30 119-80 81-119 30-146q0-59-18-112t-48-98l33-33q24-24 51-50t48-49 28-29z m-466 121q52 0 98 19t80 54 54 80 19 98-19 98-54 80-80 54-98 20-98-20-80-54-53-80-20-98 20-98 53-80 80-54 98-19z" horiz-adv-x="1000" />

<glyph glyph-name="attach-2" unicode="&#xe829;" d="M903 726q37-36 54-81t17-91-17-91-54-81l-383-380q-36-36-88-60t-112-28-119 16-113 72q-51 51-71 111t-16 118 27 111 60 88l340 337q9 9 26 4t27-13q8-9 13-26t-4-26l-339-337q-27-27-45-63t-21-77 12-83 54-81q35-35 78-49t85-12 79 18 65 43l382 379q27 27 38 56t11 58-13 55-36 51q-43 42-96 39t-108-57l-345-343q-23-23-23-51t19-46q22-22 50-18t47 22l313 311q9 9 27 4t26-13 14-26-4-27l-314-311q-36-36-69-50t-62-12-54 15-46 34q-17 16-30 41t-16 55 11 64 48 69q18 18 32 33l23 23 11 11 279 278q36 36 79 56t86 24 87-12 78-51z" horiz-adv-x="1000" />

<glyph glyph-name="member" unicode="&#xe82a;" d="M453 217q-2-11-5-16t-14-13q-26-16-56-26t-57-22-47-31-25-55q-2-11-2-21t-2-20q-1-2-2-3t-2-4q-39 3-78 7t-73 9-56 10-29 10q-9 7-13 42t3 90q5 31 26 47t48 26 57 17 52 22q17 11 27 22t13 20 4 21-1 24q-2 20-13 31t-25 23q-8 5-14 16t-9 22l-9 27q-5 2-11 6-5 3-11 11t-10 22-4 27 5 21q4 10 11 17-1 32 3 65 4 27 13 58t27 55q16 23 36 38t40 24 41 11 40 3q50 0 89-21t60-44q12-17 16-32t9-33q-19-11-40-32t-37-43q-20-27-30-61t-14-63q-5-34-5-69-8-9-13-20-4-10-5-23t4-30q6-16 12-25t11-14q6-6 11-8 4-15 8-30 4-12 10-24t13-18q7-6 11-10t7-7 3-10 2-16z m528-181q3-15 6-35t2-40-3-38-8-26q-4-6-24-12t-48-12-63-9-70-7-67-5-58-2-57 2-67 5-68 6-62 8-48 9-24 9q-7 7-12 42t3 88q4 32 24 48t48 26 57 17 52 22q18 12 28 22t14 20 4 21-1 24q-2 20-14 31t-26 23q-7 6-12 17t-9 21q-4 13-8 27-6 2-12 6-5 4-10 12t-11 22-4 26 5 20q4 10 11 18-1 32 3 64 4 29 12 58t26 57q16 23 36 38t41 24 41 11 40 3q50 0 90-21t58-45q22-26 33-59t15-63q5-33 4-67 5-4 8-11 3-6 6-15t0-23q-2-19-7-29t-12-17q-7-7-16-9-4-14-8-27-4-11-9-21t-14-16q-8-7-14-12t-11-10-9-13-5-17q-2-13-2-26t7-26 19-25 37-21q21-8 46-15t49-15 41-23 27-35z" horiz-adv-x="1000" />

<glyph glyph-name="file-add" unicode="&#xe82b;" d="M576 338q-30-30-50-67t-27-75-6-79 16-77h-379q-21 0-44 8t-41 25-31 40-13 53v428q0 61 34 95t92 35h30 59 76q43 0 86 1t86 0h75 55 25q23 0 47-9t42-24 30-35 12-42v-12q-53 0-123-1t-141 0h-137-108q-25 0-40-15t-22-42q-8-29-18-63t-18-62l-20-68q-4-14 6-29t31-16q16 0 27 9t15 24l53 200 521-1q19-3 38-11t32-23 20-36 1-53q0-1 0-3t-1-5q-75 24-153 7t-137-77z m206 10q45 0 84-17t69-46 46-69 17-84-17-84-46-69-69-46-84-17-84 17-69 46-46 69-17 84 17 84 46 69 69 46 84 17z m126-244q13 0 22 9t10 22-10 22-22 9h-93v94q0 13-10 22t-22 9q-14 0-23-9t-9-22v-94h-93q-14 0-23-9t-9-22 9-22 23-9h93v-94q0-13 9-22t23-9q13 0 22 9t10 22v94h93z" horiz-adv-x="1000" />

<glyph glyph-name="affirm-2" unicode="&#xe82c;" d="M500 819c-259 0-469-210-469-469s210-469 469-469 469 210 469 469-210 469-469 469z m250-411l-251-250c-12-12-28-18-44-18-17 0-33 6-45 18l-160 160c-24 24-24 64 0 88 25 24 64 24 89 0l116-116 206 207c25 24 64 24 89 0 24-25 24-64 0-89z" horiz-adv-x="1000" />

<glyph glyph-name="min" unicode="&#xe82d;" d="M938 350c0-34-28-62-63-62h-750c-34 0-62 28-62 62l0 0c0 35 28 63 62 63h750c35 0 63-28 63-63l0 0z" horiz-adv-x="1000" />

<glyph glyph-name="wrench-1" unicode="&#xe82e;" d="M804 597q30-9 30-90 0-108-77-184t-184-76q-28 0-53 5-31-39-90-117t-109-136q-55-65-138-65-75 0-129 53t-54 128q0 84 64 140 59 50 137 108t118 91q-6 31-6 53 0 107 76 183t184 77q38 0 77-13 14-4 18-18t-7-26l-138-135 20-99 100-20 136 133q11 11 25 8z m-621-533q21 0 36 15t16 36-16 37-36 16-37-16-16-37 16-36 37-15z" horiz-adv-x="834" />

<glyph glyph-name="add-3" unicode="&#xe82f;" d="M938 350c0-34-28-62-63-62h-750c-34 0-62 28-62 62l0 0c0 35 28 63 62 63h750c35 0 63-28 63-63l0 0z m-438 438c35 0 63-28 63-63v-750c0-35-28-63-63-63l0 0c-34 0-62 28-62 63v750c0 35 28 63 62 63l0 0z" horiz-adv-x="1000" />

<glyph glyph-name="female-1" unicode="&#xe830;" d="M500 337c-68 0-123 55-123 123s55 123 123 123 123-55 123-123-55-123-123-123z m0 482c-259 0-469-210-469-469 0-259 210-469 469-469 259 0 469 210 469 469 0 259-210 469-469 469z m109-600c22 0 40-18 40-41 0-23-18-41-40-41h-68v-60c0-23-18-41-41-41s-41 18-41 41v60h-68c-22 0-40 18-40 41 0 22 18 41 40 41h68v41c-93 19-163 101-163 200 0 113 91 204 204 204s204-91 204-204c0-99-70-181-163-200v-41h68z" horiz-adv-x="1000" />

<glyph glyph-name="arrows-cw-1" unicode="&#xe831;" d="M843 261q0-3 0-4-36-150-150-243t-267-93q-81 0-157 31t-136 88l-72-72q-11-11-25-11t-25 11-11 25v250q0 14 11 25t25 11h250q14 0 25-11t10-25-10-25l-77-77q40-37 90-57t105-20q74 0 139 37t104 99q6 10 29 66 5 13 17 13h107q8 0 13-6t5-12z m14 446v-250q0-14-10-25t-26-11h-250q-14 0-25 11t-10 25 10 25l77 77q-82 77-194 77-75 0-140-37t-104-99q-6-10-29-66-5-13-17-13h-111q-7 0-13 6t-5 12v4q36 150 151 243t268 93q81 0 158-31t137-88l72 72q11 11 25 11t26-11 10-25z" horiz-adv-x="857.1" />

<glyph glyph-name="ccw-1" unicode="&#xe832;" d="M857 350q0-87-34-166t-91-137-137-92-166-34q-96 0-183 41t-147 114q-4 6-4 13t5 11l76 77q6 5 14 5 9-1 13-7 41-53 100-82t126-29q58 0 110 23t92 61 61 91 22 111-22 111-61 91-92 61-110 23q-55 0-105-20t-90-57l77-77q17-16 8-38-10-23-33-23h-250q-15 0-25 11t-11 25v250q0 24 22 33 22 10 39-8l72-72q60 57 137 88t159 31q87 0 166-34t137-92 91-137 34-166z" horiz-adv-x="857.1" />

<glyph glyph-name="cancel-3" unicode="&#xe833;" d="M854-4c-25-24-64-24-89 0l-619 619c-24 25-24 64 0 89l0 0c25 24 64 24 89 0l619-619c24-25 24-64 0-89l0 0z m0 708c24-25 24-64 0-89l-619-619c-25-24-64-24-88 0l0 0c-25 25-25 65 0 89l618 619c25 24 64 24 89 0l0 0z" horiz-adv-x="1000" />

<glyph glyph-name="file-delete" unicode="&#xe834;" d="M779 418q-59 0-110-22t-90-60-60-90-23-111q0-49 17-95h-383q-21 0-43 9t-42 26-31 40-12 52v41 81q0 45 0 98t-1 97v77 35q0 60 34 95t92 35h492q23 0 47-8t42-24 30-35 12-43v-13h-505q-50 0-66-56-8-29-18-62t-18-60q-10-33-20-64-2-8-2-14 0-16 11-27t28-12 26 12 14 27l55 193h529q18-4 35-13t30-23 18-36 0-50q0-2 0-5t-2-8q-39 13-86 13z m5-67q45 0 84-17t69-46 46-69 17-84-17-84-46-69-69-46-84-17-84 17-69 46-46 69-17 84 17 84 46 69 69 46 84 17z m42-213l66 68q9 8 9 21t-9 22-22 9-22-9l-67-67-66 67q-9 9-22 9t-22-9-9-22 9-21l66-68-66-66q-9-9-9-22t9-22q9-10 22-10t22 10l66 66 67-66q9-10 22-10t22 10q9 9 9 22t-9 22z" horiz-adv-x="1000" />

<glyph glyph-name="message-1" unicode="&#xe835;" d="M852 731h-704c-64 0-117-53-117-117v-528c0-64 53-117 117-117h704c64 0 117 53 117 117v528c0 64-53 117-117 117z m-643-124h582c29 0 53-24 53-53v-38l-343-199-345 199v38c0 29 24 53 53 53z m582-513h-582c-29 0-53 23-53 52v226l313-181c3-2 7-2 10-3 3-1 6-2 9-3 4-1 8-1 12-1 5 0 9 0 13 1 3 0 6 2 9 3 3 1 7 1 10 3l312 181v-226c0-29-24-52-53-52z" horiz-adv-x="1000" />

<glyph glyph-name="edit-2" unicode="&#xe836;" d="M784 391l125 125v-579h-812v806h562l-125-125h-312v-556h562v329z m-406-88l362 362 89-88-363-362-96-8 8 96z m488 311l-88 89 88 88 89-88-89-89z" horiz-adv-x="1000" />

<glyph glyph-name="file" unicode="&#xe837;" d="M939 417q0-8 0-38t1-69 0-84 0-80q0-19-8-38t-26-34-39-25-52-9h-623q-21 0-44 8t-41 26-31 40-11 52v429q0 61 33 95t92 35h51 103q60 0 128 1t127 0h99 46q23 0 47-9t42-24 30-35 12-43v-11q-28 0-74-1t-100-1-116 0-122-1-115-1h-97q-25 0-43-16t-18-44-1-63 0-61v-65h1v-30q0-13 8-22t22-9 22 9 9 22v32h2l-2 187 589 0q19-3 37-11t30-23 23-36 9-53z" horiz-adv-x="1000" />

<glyph glyph-name="heart-2" unicode="&#xe838;" d="M790 644q70-64 70-156t-70-158l-360-330-360 330q-70 66-70 158t70 156q62 58 151 58t153-58l56-52 58 52q62 58 150 58t152-58z" horiz-adv-x="860" />

<glyph glyph-name="clock-2" unicode="&#xe839;" d="M464 685q-138 0-236-98t-98-237 98-237 236-97 237 97 98 237-98 237-237 98z m1 112q184 0 315-131t131-316-131-315-315-132-316 132-131 315 131 316 316 131z m151-518l-80-80-109 111q-19 17-19 41l0 223 113 0 0-199z" horiz-adv-x="928" />

<glyph glyph-name="male-2" unicode="&#xe83a;" d="M910 730c-6 15-18 27-34 34-7 3-15 5-24 5h-238c-35 0-63-28-63-63s28-62 63-62h88l-135-135c-49 32-106 50-169 50-172 0-312-140-312-312s140-313 312-313c173 0 313 140 313 313 0 65-20 125-54 175l133 133v-81c0-34 28-62 62-62 35 0 63 28 63 62v232c0 8-2 16-5 24z m-512-671c-103 0-187 84-187 188s84 187 187 187 188-84 188-187-84-188-188-188z" horiz-adv-x="1000" />

<glyph glyph-name="admin" unicode="&#xe83b;" d="M689 307c56 51 92 125 92 207 0 155-126 281-281 281s-281-126-281-281c0-82 36-156 92-207-111-65-186-185-186-324 0-34 28-62 63-62s62 28 62 62c0 137 110 248 247 250 1 0 5 0 6 0 137-2 247-113 247-250 0-34 28-62 63-62s62 28 62 62c0 139-75 259-186 324z m-345 207c0 86 70 156 156 156s156-70 156-156c0-85-67-153-152-156-1 0-7 0-8 0-85 3-152 71-152 156z" horiz-adv-x="1000" />

<glyph glyph-name="female-2" unicode="&#xe83c;" d="M666 150h-103v62c142 29 250 155 250 306 0 173-140 313-313 313s-312-140-312-313c0-151 107-277 250-306v-62h-104c-34 0-62-28-62-63s28-62 62-62h104v-93c0-35 28-63 62-63s63 28 63 63v93h103c35 0 63 28 63 62s-28 63-63 63z m-353 368c0 104 83 188 187 188s188-84 188-188-84-187-188-187-187 83-187 187z" horiz-adv-x="1000" />

<glyph glyph-name="upload-1" unicode="&#xe83d;" d="M0 84v73q0 33 24 56t57 24 56-24 24-56v-73q0-17 12-29t30-13h531q18 0 30 13t12 29v73q0 33 24 56t56 24 57-24 24-56v-73q0-84-59-143t-144-60h-531q-84 0-143 59t-60 144z m155 407q0 33 24 57l247 247q23 23 57 23 33 0 56-23l243-242q23-24 23-57t-23-57q-24-23-57-23t-57 23l-105 105v-344q0-33-24-57t-56-24q-33 0-57 24t-24 57v344l-110-110q-24-23-57-23t-56 23-24 57z" horiz-adv-x="937.5" />

<glyph glyph-name="download-1" unicode="&#xe83e;" d="M0 84v73q0 33 24 56t57 24 56-24 24-56v-73q0-17 12-29t30-13h531q18 0 30 13t12 29v73q0 33 24 56t56 24 57-24 24-56v-73q0-84-59-143t-144-60h-531q-84 0-144 60t-59 143z m155 359q0 33 24 57 23 23 56 23t57-23l105-106v344q0 33 24 57t56 23 57-23 24-57v-344l110 110q24 24 57 24t56-24q24-23 24-56t-24-57l-247-247q-24-25-57-25-32 0-56 25l-242 242q-24 24-24 57z" horiz-adv-x="937.5" />

<glyph glyph-name="activity" unicode="&#xe83f;" d="M969 488c0 151-81 246-239 246-23 0-45-2-65-6 29-57 46-129 46-217 0-112-33-215-88-295 19-11 39-20 62-25l-16-35h36c-6-38-31-89-29-120 1-21 20-70 20-70h47c0 0-19 49-20 70-2 31 23 82 29 120h35l-12 35c128 26 194 161 194 297z m-335 35c0 191-102 312-302 312-199 0-301-121-301-312 0-171 83-341 245-373l-34-45h62c-8-47-40-112-37-151 1-27 25-89 25-89h59c0 0-23 62-25 89-3 39 29 104 37 151h60l-34 45c162 32 245 202 245 373z" horiz-adv-x="1000" />

<glyph glyph-name="down-move" unicode="&#xe840;" d="M500 819c-259 0-469-210-469-469s210-469 469-469 469 210 469 469-210 469-469 469z m0-834c-201 0-365 164-365 365s164 365 365 365 365-164 365-365-164-365-365-365z m221 470c-24 25-64 25-88 0l-133-132-133 132c-24 25-64 25-88 0-24-24-24-64 0-88l177-177c24-24 64-24 88 0l177 177c24 24 24 64 0 88z" horiz-adv-x="1000" />

<glyph glyph-name="up-move" unicode="&#xe841;" d="M500 819c-259 0-469-210-469-469s210-469 469-469 469 210 469 469-210 469-469 469z m0-834c-201 0-365 164-365 365s164 365 365 365 365-164 365-365-164-365-365-365z m221 249c-24-24-64-24-88 0l-133 133-133-133c-24-24-64-24-88 0-24 24-24 64 0 88l177 177c24 25 64 25 88 0l177-177c24-24 24-64 0-88z" horiz-adv-x="1000" />

<glyph glyph-name="inbox" unicode="&#xe842;" d="M719 682h-438l-250-394v-293h938v293l-250 394z m-18-394l-107-125h-188l-107 125h-124l174 289h301l174-289h-123z" horiz-adv-x="1000" />

<glyph glyph-name="study" unicode="&#xe843;" d="M500 211l-312 146v-256c0-52 139-125 312-125s313 73 313 125v256l-313-146z m500 321l-500-233-500 233 500 233 500-233z m-64-353h-62v205l62 34v-239z" horiz-adv-x="1000" />

<glyph glyph-name="physics" unicode="&#xe844;" d="M233 573l124 140h-73l32 121-125-141h74l-32-120z m386-48v-285c0-66-53-119-119-119s-119 53-119 119v285h-214v-309c0-183 149-332 333-332s333 149 333 332v309h-214z m65 48l125 140h-74l32 121-124-141h74l-33-120z" horiz-adv-x="1000" />

<glyph glyph-name="english" unicode="&#xe845;" d="M863 237c-12-9-27-11-46-7-20 4-34 14-42 30-7 16-7 41 0 77 7 29 16 49 28 60 16 16 35 21 58 16 10-2 18-6 25-12 8-6 13-13 17-22 2-5 4-13 5-24l92 0c-4 37-15 66-35 87-20 22-50 37-90 46-52 11-95 6-130-16-34-23-58-60-69-114-9-40-8-74 2-103 11-29 26-52 46-67 20-15 47-26 82-34 29-6 54-7 74-3 21 4 39 13 55 27 16 13 30 32 41 55l-81 45c-9-19-19-33-32-41z m-759 211l-104-336 104 6 13 55 115 7 20-53 106 6-143 322-111-7z m31-202l29 120 43-116-72-4z m430 201c15 6 26 15 34 25 11 15 15 32 14 51-2 23-13 42-31 56-18 14-43 20-75 18l-190-17 28-328 176 15c7 1 22 3 45 8 17 4 29 9 37 14 13 9 23 21 30 35 7 15 9 30 8 47-2 21-9 38-21 51-13 13-31 21-55 25z m-140 76l45 3c16 2 27 0 33-5 7-5 11-12 11-22 1-10-1-18-7-24-6-6-16-10-32-11l-44-4-6 63z m105-175c-7-7-19-11-37-12l-51-5-6 67 52 4c17 2 30 0 38-6 7-5 11-12 12-22 1-10-2-19-8-26z" horiz-adv-x="1000" />

<glyph glyph-name="geography" unicode="&#xe846;" d="M500 819c-259 0-469-210-469-469 0-259 210-469 469-469 259 0 469 210 469 469 0 259-210 469-469 469z m-94-351l10-24c0 0 25-27 0-47 0 0-30 0-36 10-6 10-50 37-59 45-8 8-34 16-34 16l-32 11-31 2 2 42-2 35-12 25-34 26-2 27 4 16c82 79 195 128 319 128 71 0 136-17 196-45l-2-10-58-42-45-23-16-45-26-24h-87l-41-15-2-32-16-25-4-28 8-23z m463-346c-25-42-58-79-96-110l-17-10-48-29-29-21c-21-10-43-18-66-25v28l-8 65c0 0-4 37-10 47-6 10-21 23-35 29-14 6-24 6-32 16-8 10-14 27-24 43-10 16-23 32-23 39 0 8 0 89 0 89l11 74 22 16 26 29 18 6 63-11h44l18-38 43-33 26-41 34-12h39l26-31 16-34 6-23v-39l-4-24z" horiz-adv-x="1000" />

<glyph glyph-name="math" unicode="&#xe847;" d="M731 756l-637-637 175-175 637 637-175 175z m-430-653l-96 96 32 32 96-96-32-32z m64 128l-64 63 32 32 64-64-32-31z m143 79l-96 96 32 32 96-96-32-32z m80 144l-64 63 32 32 64-64-32-31z m32 159l31 32 96-96-32-32-95 96z" horiz-adv-x="1000" />

<glyph glyph-name="history" unicode="&#xe848;" d="M829 692v76c0 28-22 51-50 51-28 0-51-23-51-51v-76h-456v76c0 28-23 51-51 51s-50-23-50-51v-76h-127v-101h58l69-710h101l18 203h420l18-203h101l69 710h58v101h-127z m-380-431h-228v152h127v-50h-76v-51h127v152h-203v51h253v-254z m355 203h-203v-152h127v51h-76v50h127v-152h-228v254h253v-51h0z" horiz-adv-x="1000" />

<glyph glyph-name="life" unicode="&#xe849;" d="M670 301c76-44 129-124 133-218h1v-151c0-28-23-51-51-51-28 0-50 23-50 51v51h-405v-51c0-28-23-51-51-51s-51 23-51 51v151h1c4 93 57 173 134 217l0 0 71 44 0 11-71 44 0 0c-77 44-130 124-134 218h-1v151c0 28 23 51 51 51s51-23 51-51v-51h405v51c0 28 22 51 50 51 28 0 51-23 51-51v-152h-1c-4-94-57-174-133-218l-1 0-70-45 0-8 70-44 1 0z m-372-268h405c0 0-4 68-6 76h-394c-2-8-5-76-5-76z m405 634h-405c0 0 3-68 5-76h394c2 8 6 76 6 76z m-84-181l0 0c23 13 43 32 57 54h-351c14-22 34-40 56-53l0 0 120-75 118 74z m-118-199l-120-75 0 0c-22-13-41-31-55-52h349c-14 22-33 40-56 53l0 0-118 74z" horiz-adv-x="1000" />

<glyph glyph-name="unknown-group" unicode="&#xe84a;" d="M500 827c-226 0-409-185-409-412s297-526 409-526 409 299 409 526-183 412-409 412z m-330-401c-4 14-6 28-6 42 13 7 28 13 43 16 104 25 211-30 238-122 5-14 7-29 7-42-14-7-28-13-44-17-104-24-210 31-238 123z m244-318l57 94h58l57-94h-172z m178 195c-16 4-30 10-44 17 0 13 2 27 7 42 27 92 134 147 238 122 15-3 30-9 43-16 0-14-2-28-6-42-28-92-134-147-238-123z" horiz-adv-x="1000" />

<glyph glyph-name="sport" unicode="&#xe84b;" d="M499 578c-195 0-353-158-353-353s158-354 353-354c195 0 354 159 354 354s-159 353-354 353z m85-512h-170v49h22c11 0 15 0 18 2 3 1 5 3 7 6s2 10 2 20v167h-49v48c17 2 27 2 36 4 14 3 14 3 29 9 8 3 14 9 22 12h35v-240c0-10 0-16 1-18 1-4 3-7 7-8s9-2 18-2h22v-49z m273 655l-169 108-153-204c90-8 171-45 234-103l88 199z m-393-96l-153 204-168-113 85-194c64 58 145 96 236 103z" horiz-adv-x="1000" />

<glyph glyph-name="political" unicode="&#xe84c;" d="M896 512l-272 52-134 244-134-244-273-52 190-203-34-276 251 118 251-118-34 276 189 203z m-113-227l160-113 35 129-195-16z m-15 517l-79-173 170 81-91 92z m-543 0l-90-91 170-79-80 170z m-177-627l153 109-186 15 33-124z m378-283h128l-65 177-63-177z" horiz-adv-x="1000" />

<glyph glyph-name="chemistry" unicode="&#xe84d;" d="M869 49c9-16 15-34 15-54 0-62-50-112-111-114l0 0h-549l-1 1c-59 4-106 52-106 113 0 18 4 35 12 50l272 461 0 0v142l0 0c-47 0-86 38-86 86s39 85 86 85h198c48 0 86-38 86-85s-38-86-86-86v-142l270-457z m-276 656c16 0 29 13 29 29s-13 28-29 28h-184c-16 0-29-13-29-28s13-29 29-29h48v-114l0 0v-93l-108-191h300l-106 191v150l0 0v57h50z" horiz-adv-x="1000" />

<glyph glyph-name="unknown-class" unicode="&#xe84e;" d="M520 639v-614c0 0 188 86 449 41v614c-261 75-449-41-449-41z m378-443c-33 11-68 17-105 17-75 0-143-24-199-65v83c59 33 127 52 199 52 36 0 72-5 105-14v-73z m0 164c-33 11-68 17-105 17-75 0-143-24-199-65v84c59 32 127 51 199 51 36 0 72-5 105-14v-73z m0 164c-33 11-68 17-105 17-75 0-143-24-199-65v84c59 32 127 51 199 51 36 0 72-5 105-14v-73z m-867 156v-614c261 45 449-41 449-41v614c0 0-188 116-449 41z m375-537c-56 41-124 65-199 65-37 0-72-6-105-17v74c33 9 68 15 105 15 72 0 140-20 199-53v-84z m0 166c-56 41-124 65-199 65-37 0-72-6-105-17v74c33 9 69 14 105 14 72 0 140-19 199-52v-84z m0 166c-56 41-124 65-199 65-37 0-72-6-105-17v74c33 9 68 14 105 14 72 0 140-19 199-52v-84z" horiz-adv-x="1000" />

<glyph glyph-name="exprience-group" unicode="&#xe84f;" d="M198 569l-58 34c-16 9-36 4-45-12-10-16-4-37 12-46l58-34c16-9 36-3 46 13 9 16 3 36-13 45z m469 77c16-9 37-4 46 12l33 58c10 16 4 37-12 46-16 9-37 4-46-12l-33-58c-9-16-4-37 12-46z m-167 45c18 0 33 15 33 33v67c0 19-15 34-33 34-19 0-34-15-34-34v-67c0-18 15-33 34-33z m-213-33c9-16 30-21 46-12 16 9 21 30 12 46l-33 58c-10 16-30 21-46 12s-21-30-12-46l33-58z m619-67c-10 16-30 21-46 12l-58-34c-16-9-22-29-12-45 9-16 29-22 45-13l58 34c16 9 22 29 13 46z m-406 10c-142 0-257-115-257-256s115-257 257-257 257 115 257 257-115 256-257 256z m188-232c0-1 0-1 0-2 1-7 2-15 2-22 0-84-54-154-129-180l0 1c-2 0-4-1-6-1-12 0-22 10-22 22 0 9 5 16 11 20l0 0c59 19 101 73 101 138 0 7-1 14-2 21l1 0c0 1 0 2 0 3 0 12 10 22 22 22s22-10 22-22z m-288-332v-49c0-56 45-101 100-101 55 0 100 45 100 101v49c-31-10-65-16-100-16-35 0-69 6-100 16z" horiz-adv-x="1000" />

<glyph glyph-name="corporation-study" unicode="&#xe850;" d="M802 665h-260l54-123h34c13 0 24-15 24-29s-11-30-24-30h-272c-13 0-24 16-24 30-1 19 15 29 28 29l-58 123h-94c-27 0-49-22-49-49v-691c0-27 22-49 49-49h592c28 0 50 22 50 49v691c0 27-22 49-50 49z m-296-641c-81 0-148 1-148 49 0 82 67 148 148 148-41 0-74 33-74 74s33 74 74 74 74-33 74-74-33-74-74-74c82 0 148-66 148-148 0-48-66-49-148-49z m198 789h-99l-36-99h99l36 99z m-173-271l-123 271h-99l123-271h99z" horiz-adv-x="1000" />

<glyph glyph-name="art" unicode="&#xe851;" d="M842 463l-26-60-29-66c-13-25-30-46-58-41 33-39 29-94 4-145-54-109-128 8-154-110-144 50-161 202-136 265 21 51 72 79 121 78-22 22-13 37-2 58l114 217c-12 53-56 82-148 83-181 1-401-85-477-301-75-216 67-431 318-482 251-50 515 84 590 300 32 92 1 209-117 204z m-590 86c8 31 40 49 71 41 32-8 50-40 42-71-9-31-41-49-72-41-31 8-50 40-41 71z m-102-162c9 33 44 53 78 44 34-9 55-43 45-77-9-34-44-54-78-45-34 9-54 44-45 78z m198-240c-11-40-53-63-93-53-40 11-64 52-53 91 11 40 52 64 92 53 41-10 65-51 54-91z m303 233l0 0-29-57c-38 11-81-8-101-48-18-35-13-100 43-148-20 89 71 0 107 72 19 38 10 82-19 108l29 58c17-8 37-1 45 15l142 322c8 17 1 37-15 46-17 8-37 1-45-15l-172-307c-8-17-1-37 15-46z" horiz-adv-x="1000" />

<glyph glyph-name="study-group" unicode="&#xe852;" d="M289 99h586v677c0 29-24 53-52 53h-105v-235l-78 52-78-52v235h-338c-58 0-105-47-105-105v-677c0-86 70-156 157-156h547c28 0 52 23 52 52v26h-586c-36 0-65 29-65 65 0 36 29 65 65 65z" horiz-adv-x="1000" />

<glyph glyph-name="interest-group" unicode="&#xe853;" d="M404 157c0 6 0 12 1 18 8 88 91 169 178 169 2 0 8 0 10 0 38 0 83-18 112-38 11 8 12 7 25 12-67 75-165 122-275 123 101 1 183 83 183 185 0 103-83 186-184 186s-184-83-184-186c0-102 81-184 182-185-202-1-374-161-354-358 12-114 151-108 322-107 11 0 34 0 45 0-44 51-67 112-61 181z m508-8c-6 66-61 117-127 117-32 0-62-13-85-33-22 20-52 33-85 33-66 0-120-51-127-117 0-4 0-8 0-13 0-139 212-248 212-248s213 109 213 248c0 5 0 9-1 13z m-151-150c-5-6-12-10-20-10-14 0-25 11-25 26 0 9 6 18 14 22l-1 1c28 14 89 50 89 94 0 1-1 3-1 5 0 0 0 1 0 1h0c0 1 0 2 0 3 0 14 11 25 25 25 14 0 26-11 26-25 0 0 0-1 0-1h0c-1-67-64-110-107-141z" horiz-adv-x="1000" />

<glyph glyph-name="picture" unicode="&#xe854;" d="M906 756h-812c-35 0-63-28-63-62v-688c0-34 28-62 63-62h812c35 0 63 28 63 62v688c0 34-28 62-63 62z m-31-93v-436l-212 178c-17 17-45 17-62 0 0 0 0 0 0 0 0-1-1-1-1-1l-171-161-102 84c-1 0-1 0-1 0 0 1 0 1 0 1-17 17-45 17-62 0l-139-116v451h750z m-750-625v61l170 143 102-83c4-4 9-7 14-9 16-8 36-5 49 8l172 160 243-203v-77h-750z m286 457c0-40-32-71-71-71s-71 32-71 71 32 70 71 70 71-31 71-70z" horiz-adv-x="1000" />

<glyph glyph-name="211" unicode="&#xe855;" d="M656 138h-381c-150 0-269 125-269 275 0 156 119 275 269 275h381c150 0 269-119 269-269 6-156-119-281-269-281z m-381 500c-125 0-225-100-225-225 0-125 100-225 225-225h381c125 0 225 100 225 225 0 125-100 225-225 225h-381z m113-319v-31h-175v25c18 31 43 56 75 81 50 37 56 50 56 69 0 25-13 43-44 43-25 0-44-18-50-43l-31 6c12 44 44 62 94 62 50 0 81-31 81-68 0-32-13-50-63-82-31-18-56-43-68-62h125z m100 156c-13-12-38-31-75-44 0 0 0 32 0 32 43 18 68 43 87 68h31v-243h-43v187z m162 0c-12-12-44-31-75-44 0 0 0 32 0 32 44 18 69 43 88 68h25v-243h-38v187z" horiz-adv-x="1000" />

<glyph glyph-name="985" unicode="&#xe856;" d="M656 138h-381c-150 0-269 125-269 275 0 156 119 275 269 275h381c150 0 269-119 269-269 6-156-119-281-269-281z m-381 500c-125 0-225-100-225-225 0-125 100-225 225-225h381c125 0 225 100 225 225 0 125-100 225-225 225h-381z m-44-288c7-25 19-31 38-31 31 0 50 25 56 94-12-25-31-38-62-38-44 0-69 31-69 75 0 44 31 81 81 81 63 0 88-37 88-112 0-81-32-125-88-125-44 0-62 19-75 56l31 0z m44 150c-31 0-44-19-44-50 0-31 19-50 44-50 31 0 50 19 50 44 0 37-19 56-50 56z m163-87c-25 12-44 31-44 56 0 31 25 62 75 62s75-31 75-62c0-25-13-44-44-50v0c31-6 50-31 50-56 6-44-25-75-81-75-50 0-81 25-81 68 0 25 18 50 50 57l0 0z m81-57c0 25-19 44-50 44-31 0-44-19-44-44 0-25 19-43 50-43 25 0 44 18 44 43z m-88 113c0-25 13-38 38-38 31 0 44 13 44 38 0 25-13 37-38 37-31 0-44-18-44-37z m182-106c6-32 25-44 50-44 31 0 50 19 50 50 0 31-19 50-50 50-19 0-38-6-44-19l-25 0 12 125h132l0-31h-107l-6-69c13 13 31 19 50 19 44 0 75-31 75-75 0-50-31-81-87-81-44 0-69 25-82 62l32 13z" horiz-adv-x="1000" />

<glyph glyph-name="illustrate" unicode="&#xe857;" d="M500 788c-244 0-437-194-437-438 0-244 193-438 437-438s438 194 438 438c0 244-194 438-438 438z m0-813c-206 0-375 169-375 375s169 375 375 375 375-169 375-375-169-375-375-375z m-37 625h75v-350h-75v350z m0-406h75v-75h-75v75z" horiz-adv-x="1000" />

<glyph glyph-name="share1" unicode="&#xe858;" d="M719 494c-75 0-138 62-138 137s63 138 138 138 137-63 137-138-62-137-137-137z m0 219c-44 0-75-38-75-75s37-75 75-75 75 37 75 75-31 75-75 75z m0-794c-75 0-138 62-138 137s63 138 138 138 137-63 137-138-62-137-137-137z m0 219c-44 0-75-38-75-75s37-76 75-76 75 38 75 76-31 75-75 75z m-500 75c-75 0-138 62-138 137s63 138 138 138 137-63 137-138-62-137-137-137z m0 212c-44 0-81-31-81-75s37-75 75-75 81 31 81 75-38 75-75 75z m106-50l-31 56 306 182 31-57-306-181z m281-294l-312 182 31 56 306-181-25-57z" horiz-adv-x="1000" />

<glyph glyph-name="dot" unicode="&#xe859;" d="M110 460q46 0 78-32t32-78q0-44-32-77t-78-33-78 33-32 77q0 46 32 78t78 32z" horiz-adv-x="220" />

<glyph glyph-name="up" unicode="&#xe85a;" d="M0 354q0 26 18 44l391 390 390-390q18-18 18-44 0-26-18-43-18-18-43-18t-43 18l-243 243v-642q0-25-18-43t-43-18q-26 0-44 18t-17 43v642l-244-243q-18-18-43-18t-43 18q-18 17-18 43z" horiz-adv-x="817.4" />

<glyph glyph-name="iconfont-tuichu" unicode="&#xe85b;" d="M931 366l-181 181c-8 9-23 9-32 0l-36-36c-9-9-9-24 0-33l80-79-364 0c-13 0-23-10-23-23l0-52c0-12 10-22 23-22l363 0-79-80c-9-9-9-23 0-32l36-37c9-9 23-9 32 0l145 145c0 0 0 0 0 0l36 36c9 9 9 23 0 32l0 0z m-311 422l-489 0c-38 0-68-31-68-69l0-738c0-38 30-68 68-68l489 0c37 0 68 30 68 68l0 96c0 12-10 22-23 22l-49 0c-13 0-23-10-23-22l0-37c0-18-15-33-34-33l-369 0c-19 0-34 15-34 34l0 619c0 19 15 34 34 34l369 0c19 0 34-15 34-33l0-38c0-12 10-22 23-22l49 0c13 0 23 10 23 22l0 96c0 38-31 69-68 69l0 0z m0 0" horiz-adv-x="1000" />

<glyph glyph-name="loop-alt" unicode="&#xe85c;" d="M799 351l112 0 0-56q0-69-48-119t-119-49l-391 0 0-111-223 168 223 167 0-112 391 0q23 0 39 16t16 40l0 56z m-669 56l0-56-112 0 0 56q0 70 49 118t119 49l390 0 0 111 223-166-223-168 0 111-390 0q-24 0-40-16t-16-39z" horiz-adv-x="928" />

<glyph glyph-name="eye" unicode="&#xe85d;" d="M929 314q-85 132-213 197 34-58 34-125 0-104-73-177t-177-73-177 73-73 177q0 67 34 125-128-65-213-197 75-114 187-182t242-68 242 68 187 182z m-402 215q0 11-8 19t-19 7q-70 0-120-50t-50-119q0-12 8-19t19-8 19 8 8 19q0 48 34 82t82 34q11 0 19 8t8 19z m473-215q0-19-11-38-78-129-210-206t-279-77-279 77-210 206q-11 19-11 38t11 39q78 128 210 205t279 78 279-78 210-205q11-20 11-39z" horiz-adv-x="1000" />

<glyph glyph-name="eye-off" unicode="&#xe85e;" d="M310 105l43 79q-48 35-76 88t-27 114q0 67 34 125-128-65-213-197 94-144 239-209z m217 424q0 11-8 19t-19 7q-70 0-120-50t-50-119q0-12 8-19t19-8 19 8 8 19q0 48 34 82t82 34q11 0 19 8t8 19z m202 106q0-4 0-5-59-105-176-316t-176-316l-28-50q-5-9-15-9-7 0-75 39-9 6-9 16 0 7 25 49-80 36-147 96t-117 137q-11 17-11 38t11 39q86 131 212 207t277 76q50 0 100-10l31 54q5 9 15 9 3 0 10-3t18-9 18-10 18-10 10-7q9-5 9-15z m21-249q0-78-44-142t-117-92l157 281q4-26 4-47z m250-72q0-19-11-38-22-36-61-81-84-96-194-149t-234-53l41 74q119 10 219 76t169 171q-65 100-158 164l35 63q53-36 102-86t81-102q11-19 11-39z" horiz-adv-x="1000" />

<glyph glyph-name="angle-circled-left" unicode="&#xe85f;" d="M507 72l57 56q11 11 11 26t-11 25l-171 171 171 171q11 11 11 25t-11 25l-57 57q-10 11-25 11t-25-11l-253-253q-11-11-11-25t11-25l253-254q11-10 25-10t25 10z m350 278q0-117-57-215t-156-156-215-58-216 58-155 156-58 215 58 215 155 156 216 58 215-58 156-156 57-215z" horiz-adv-x="857.1" />

<glyph glyph-name="angle-circled-right" unicode="&#xe860;" d="M400 72l253 253q11 11 11 25t-11 25l-253 253q-10 11-25 11t-25-11l-57-56q-11-11-11-26t11-25l171-171-171-171q-11-11-11-25t11-26l57-57q11-10 25-10t25 10z m457 278q0-117-57-215t-156-156-215-58-216 58-155 156-58 215 58 215 155 156 216 58 215-58 156-156 57-215z" horiz-adv-x="857.1" />

<glyph glyph-name="to-end" unicode="&#xe861;" d="M25-71q-10-11-18-8t-7 18v822q0 14 7 18t18-8l396-396q5-4 8-11v379q0 14 10 25t25 11h72q14 0 25-11t10-25v-786q0-14-10-25t-25-11h-72q-14 0-25 11t-10 25v379q-3-6-8-11z" horiz-adv-x="571.4" />

<glyph glyph-name="cw" unicode="&#xe862;" d="M857 707v-250q0-14-10-25t-26-11h-250q-23 0-32 23-10 22 7 38l77 77q-82 77-194 77-58 0-111-23t-91-61-62-91-22-111 22-111 62-91 91-61 111-23q66 0 125 29t100 82q4 6 13 7 8 0 14-5l76-77q5-4 6-11t-5-13q-60-74-147-114t-182-41q-87 0-167 34t-136 92-92 137-34 166 34 166 92 137 136 92 167 34q82 0 158-31t137-88l72 72q16 18 39 8 22-9 22-33z" horiz-adv-x="857.1" />

<glyph glyph-name="half-right" unicode="&#xe863;" d="M931 713c0 0-156-57-331-219 0 0-25 31-44 50 0 0-75 87-143-19 0 0-19-50 37-50 19 0 75-56 75-56-69-75-131-169-187-281 0 0-57 87-125 156 0 0-69 87-138-19 0 0-19-50 38-50 62-6 168-256 212-263 31-6 63 25 88 69 75 132 131 232 181 307 62-75 137-175 137-175s0 125-75 256c63 100 150 175 275 294z" horiz-adv-x="1000" />

<glyph glyph-name="icon-half-right" unicode="&#xe864;" d="M894 619c-31 31-81 31-119 0l-106-106-44 37c-31 31-81 31-119 0s-31-81 0-119l44-37-181-181-144 143c-37 32-87 32-119 0-31-31-31-81 0-118l207-194c31-31 81-31 118 0l244 237 44-43c31-32 81-32 119 0 31 31 31 81 0 118l-44 44 106 106c25 32 25 82-6 113z" horiz-adv-x="1000" />

<glyph glyph-name="icon-wrong" unicode="&#xe865;" d="M638 331l175 169c31 31 31 81 0 113s-82 31-113 0l-181-169-169 175c-31 31-81 31-112 0s-38-81-7-119l175-175-175-175c-31-31-31-81 0-112 32-32 82-32 113 0l175 175 175-175c31-32 81-32 112 0s32 81 0 112l-168 181z" horiz-adv-x="1000" />

<glyph glyph-name="icon-right" unicode="&#xe866;" d="M894 619c-31 31-81 31-119 0l-406-406-144 143c-37 32-87 32-119 0-31-31-31-81 0-118l207-200c31-32 81-32 118 0l463 462c31 38 31 88 0 119z" horiz-adv-x="1000" />

<glyph glyph-name="wrong" unicode="&#xe867;" d="M556 356c50 44 144 119 194 132 50 12 31 75 31 75-37 68-137 12-137 12-56-37-106-87-156-144-19 32-38 57-57 82-43 68-87 43-87 43-94-50-38-118-31-131 18-19 50-50 93-87-106-138-181-263-181-263s88 38 250 206c225-175 319-150 319-150s-125 100-238 225z" horiz-adv-x="1000" />

<glyph glyph-name="right" unicode="&#xe868;" d="M75 281c0 0-19-50 38-50 62-6 168-256 212-262 31-7 63 25 88 69 193 350 256 437 525 681 0 0-369-125-594-575 0 0-56 87-125 156-6 0-75 81-144-19z" horiz-adv-x="1000" />

<glyph glyph-name="blowup" unicode="&#xe869;" d="M800 669c-112 119-294 119-412 0-94-100-107-250-38-363l-225-231c-37-37-37-88 0-125 38-38 88-38 125 0l244 244c106-38 225-19 312 62 113 119 113 300-6 413z m-75-244h-81v-81c0-25-19-44-44-44s-44 19-44 38v87h-81c-25 0-44 19-44 44s19 44 44 44h81v75c0 25 19 43 44 43s44-18 44-43v-82h81c25 0 44-18 44-43s-25-38-44-38z" horiz-adv-x="1000" />

<glyph glyph-name="brush" unicode="&#xe86a;" d="M600 644l-294-294 238-237 300 300-244 231z m-325-325l-150-388 388 150-238 238z m594 356c-88 88-206 31-206 31l-32-31 238-237 31 31c0 0 56 119-31 206z" horiz-adv-x="1000" />

<glyph glyph-name="squre" unicode="&#xe86b;" d="M750 725h-500c-69 0-125-56-125-125v-500c0-69 56-125 125-125h500c69 0 125 56 125 125v500c0 69-56 125-125 125z m-81-669h-338c-68 0-125 57-125 125v338c0 69 57 125 125 125h332c68 0 125-56 125-125v-331h0c6-75-50-132-119-132z" horiz-adv-x="1000" />

<glyph glyph-name="icon-squre" unicode="&#xe86c;" d="M875 394h-294v287h-125v-293h-287v-125h294v-288h125v294h287v125z" horiz-adv-x="1000" />

<glyph glyph-name="blowdown" unicode="&#xe86d;" d="M831 681c-112 113-300 113-412 0-100-100-113-250-38-368l-231-232c-37-37-37-87 0-125 38-37 88-37 125 0l244 244c106-37 225-19 312 63 113 118 113 306 0 418z m-81-250h-250c-25 0-44 19-44 44s19 44 44 44h250c25 0 44-19 44-44s-19-44-44-44z" horiz-adv-x="1000" />

<glyph glyph-name="word" unicode="&#xe86e;" d="M831 600v-169h-43c-7 94-88 169-182 169h-62v-544h169v-81h-419v81h169v544h-63c-94 0-175-75-187-169h-44v169c0 44 37 81 81 81h500c44 0 81-37 81-81z" horiz-adv-x="1000" />

<glyph glyph-name="rubber" unicode="&#xe86f;" d="M850 519l-262 269-375-394 256-269 381 394z m-669-156l-56-182 256-269 57 182-257 269z m319-269l-62-182 375 394 62 182-375-394z" horiz-adv-x="1000" />

<glyph glyph-name="th-large" unicode="&#xe870;" d="M429 279v-215q0-29-22-50t-50-21h-286q-29 0-50 21t-21 50v215q0 29 21 50t50 21h286q29 0 50-21t22-50z m0 428v-214q0-29-22-50t-50-22h-286q-29 0-50 22t-21 50v214q0 29 21 50t50 22h286q29 0 50-22t22-50z m500-428v-215q0-29-22-50t-50-21h-286q-29 0-50 21t-21 50v215q0 29 21 50t50 21h286q29 0 50-21t22-50z m0 428v-214q0-29-22-50t-50-22h-286q-29 0-50 22t-21 50v214q0 29 21 50t50 22h286q29 0 50-22t22-50z" horiz-adv-x="928.6" />

<glyph glyph-name="zonglan" unicode="&#xe871;" d="M286 154v-108q0-22-16-37t-38-16h-178q-23 0-38 16t-16 37v108q0 22 16 38t38 15h178q22 0 38-15t16-38z m0 285v-107q0-22-16-38t-38-15h-178q-23 0-38 15t-16 38v107q0 23 16 38t38 16h178q22 0 38-16t16-38z m357-285v-108q0-22-16-37t-38-16h-178q-23 0-38 16t-16 37v108q0 22 16 38t38 15h178q23 0 38-15t16-38z m-357 571v-107q0-22-16-38t-38-16h-178q-23 0-38 16t-16 38v107q0 22 16 38t38 16h178q22 0 38-16t16-38z m357-286v-107q0-22-16-38t-38-15h-178q-23 0-38 15t-16 38v107q0 23 16 38t38 16h178q23 0 38-16t16-38z m357-285v-108q0-22-16-37t-38-16h-178q-22 0-38 16t-16 37v108q0 22 16 38t38 15h178q23 0 38-15t16-38z m-357 571v-107q0-22-16-38t-38-16h-178q-23 0-38 16t-16 38v107q0 22 16 38t38 16h178q23 0 38-16t16-38z m357-286v-107q0-22-16-38t-38-15h-178q-22 0-38 15t-16 38v107q0 23 16 38t38 16h178q23 0 38-16t16-38z m0 286v-107q0-22-16-38t-38-16h-178q-22 0-38 16t-16 38v107q0 22 16 38t38 16h178q23 0 38-16t16-38z" horiz-adv-x="1000" />

<glyph glyph-name="tikuai" unicode="&#xe872;" d="M250 600q0 30-21 51t-50 20-51-20-21-51 21-50 51-21 50 21 21 50z m595-321q0-30-20-51l-274-274q-22-21-51-21-30 0-50 21l-399 399q-21 21-36 57t-15 65v232q0 29 21 50t50 22h233q29 0 65-15t57-36l399-399q20-21 20-50z m215 0q0-30-21-51l-274-274q-22-21-51-21-20 0-33 8t-29 25l262 262q21 21 21 51 0 29-21 50l-399 399q-21 21-57 36t-65 15h125q29 0 65-15t57-36l399-399q21-21 21-50z" horiz-adv-x="1071.4" />

<glyph glyph-name="daan" unicode="&#xe873;" d="M179 707q0-40-36-61v-707q0-7-5-12t-13-6h-36q-7 0-12 6t-6 12v707q-35 21-35 61 0 30 21 51t50 21 51-21 21-51z m821-36v-425q0-14-7-22t-22-15q-120-65-206-65-34 0-69 12t-60 27-65 27-79 12q-107 0-259-81-10-5-19-5-14 0-25 10t-10 25v414q0 18 17 31 12 8 44 24 132 67 235 67 60 0 112-16t122-49q21-11 49-11 30 0 65 12t62 26 49 26 30 12q15 0 25-10t11-26z" horiz-adv-x="1000" />

<glyph glyph-name="tikuai-1" unicode="&#xe874;" d="M819 584q8-7 16-20h-264v264q13-8 21-16z m-265-91h303v-589q0-23-15-38t-38-16h-750q-23 0-38 16t-16 38v892q0 23 16 38t38 16h446v-304q0-22 16-38t38-15z m89-411v36q0 8-5 13t-13 5h-393q-8 0-13-5t-5-13v-36q0-8 5-13t13-5h393q8 0 13 5t5 13z m0 143v36q0 7-5 12t-13 5h-393q-8 0-13-5t-5-12v-36q0-8 5-13t13-5h393q8 0 13 5t5 13z m0 143v35q0 8-5 13t-13 5h-393q-8 0-13-5t-5-13v-35q0-8 5-13t13-5h393q8 0 13 5t5 13z" horiz-adv-x="857.1" />

<glyph glyph-name="menu" unicode="&#xe875;" d="M857 100v-71q0-15-10-25t-26-11h-785q-15 0-25 11t-11 25v71q0 15 11 25t25 11h785q15 0 26-11t10-25z m0 286v-72q0-14-10-25t-26-10h-785q-15 0-25 10t-11 25v72q0 14 11 25t25 10h785q15 0 26-10t10-25z m0 285v-71q0-15-10-25t-26-11h-785q-15 0-25 11t-11 25v71q0 15 11 26t25 10h785q15 0 26-10t10-26z" horiz-adv-x="857.1" />

<glyph glyph-name="task" unicode="&#xe876;" d="M71-79h161v161h-161v-161z m197 0h178v161h-178v-161z m-197 197h161v178h-161v-178z m197 0h178v178h-178v-178z m-197 214h161v161h-161v-161z m411-411h179v161h-179v-161z m-214 411h178v161h-178v-161z m428-411h161v161h-161v-161z m-214 197h179v178h-179v-178z m-196 482v161q0 7-6 12t-12 6h-36q-7 0-12-6t-6-12v-161q0-7 6-13t12-5h36q7 0 12 5t6 13z m410-482h161v178h-161v-178z m-214 214h179v161h-179v-161z m214 0h161v161h-161v-161z m18 268v161q0 7-5 12t-13 6h-35q-8 0-13-6t-5-12v-161q0-7 5-13t13-5h35q8 0 13 5t5 13z m215 36v-715q0-29-22-50t-50-21h-786q-29 0-50 21t-21 50v715q0 29 21 50t50 21h72v54q0 36 26 63t63 26h36q37 0 63-26t26-63v-54h214v54q0 36 27 63t63 26h35q37 0 63-26t27-63v-54h71q29 0 50-21t22-50z" horiz-adv-x="928.6" />

<glyph glyph-name="move" unicode="&#xe877;" d="M1000 350q0-14-11-25l-142-143q-11-11-26-11t-25 11-10 25v72h-215v-215h72q14 0 25-10t11-25-11-26l-143-142q-10-11-25-11t-25 11l-143 142q-11 11-11 26t11 25 25 10h72v215h-215v-72q0-14-10-25t-25-11-26 11l-142 143q-11 11-11 25t11 25l142 143q11 11 26 11t25-11 10-25v-72h215v215h-72q-14 0-25 10t-11 25 11 26l143 142q11 11 25 11t25-11l143-142q11-11 11-26t-11-25-25-10h-72v-215h215v72q0 14 10 25t25 11 26-11l142-143q11-10 11-25z" horiz-adv-x="1000" />

<glyph glyph-name="jindu" unicode="&#xe878;" d="M429 353l304-304q-59-61-138-94t-166-34q-117 0-216 58t-155 156-58 215 58 215 155 156 216 58v-426z m104-3h431q0-88-33-167t-94-138z m396 71h-429v429q117 0 215-57t156-156 58-216z" horiz-adv-x="1000" />

<glyph glyph-name="school" unicode="&#xe879;" d="M536 850l535-214v-72h-71q0-14-11-25t-28-11h-851q-16 0-27 11t-12 25h-71v72z m-393-357h143v-429h71v429h143v-429h71v429h143v-429h72v429h143v-429h32q16 0 28-10t11-25v-36h-929v36q0 14 12 25t27 10h33v429z m890-536q16 0 27-10t11-26v-71h-1071v71q0 15 11 26t28 10h994z" horiz-adv-x="1142.9" />

<glyph glyph-name="attention" unicode="&#xe87a;" d="M957-24q10-16 0-34-10-16-30-16l-892 0q-18 0-28 16-13 18-2 34l446 782q8 18 30 18t30-18z m-420 50l0 100-110 0 0-100 110 0z m0 174l0 300-110 0 0-300 110 0z" horiz-adv-x="962" />

<glyph glyph-name="hebing" unicode="&#xe87b;" d="M311 504l489 0c36 0 65-30 65-65l0-404c0-35-29-65-65-65l-489 0c-35 0-65 30-65 65l0 404c0 35 30 65 65 65z m454-94l-419 0 0-346 419 0 0 346z m-146 181l-101 0 0 44-417 0 0-336 58 0 0-95-93 0c-36 0-66 30-66 65l0 395c0 36 30 66 66 66l488 0c36 0 65-30 65-66l0-73z" horiz-adv-x="865" />

<glyph glyph-name="to-start" unicode="&#xe87c;" d="M546 771q11 11 18 8t7-18v-822q0-14-7-18t-18 8l-396 396q-5 5-7 11v-379q0-14-11-25t-25-11h-71q-15 0-25 11t-11 25v786q0 14 11 25t25 11h71q15 0 25-11t11-25v-379q2 7 7 11z" horiz-adv-x="571.4" />

<glyph glyph-name="link" unicode="&#xe87d;" d="M812 171q0 23-15 38l-116 116q-16 16-38 16-24 0-40-18 1-1 10-10t12-12 9-11 7-14 2-15q0-23-16-38t-38-16q-8 0-15 2t-14 7-11 9-12 12-10 10q-19-17-19-40 0-23 16-38l115-116q15-15 38-15 22 0 38 15l82 81q15 16 15 37z m-392 394q0 22-15 38l-115 115q-16 16-38 16-22 0-38-15l-82-82q-16-15-16-37 0-22 16-38l116-116q15-15 38-15 23 0 40 17-2 2-11 11t-12 12-8 10-7 14-2 16q0 22 15 38t38 15q9 0 16-2t14-7 10-8 12-12 11-11q18 17 18 41z m500-394q0-67-48-113l-82-81q-46-47-113-47-68 0-114 48l-115 115q-46 47-46 114 0 68 49 116l-49 49q-48-49-116-49-67 0-114 47l-116 116q-47 47-47 114t47 113l82 82q47 46 114 46 67 0 114-47l114-116q47-46 47-113 0-69-49-117l49-49q48 49 116 49 67 0 114-47l116-116q47-47 47-114z" horiz-adv-x="928.6" />

<glyph glyph-name="list-bullet" unicode="&#xe87e;" d="M214 64q0-44-31-76t-76-31-76 31-31 76 31 76 76 31 76-31 31-76z m0 286q0-45-31-76t-76-31-76 31-31 76 31 76 76 31 76-31 31-76z m786-232v-107q0-7-5-13t-13-5h-678q-8 0-13 5t-5 13v107q0 7 5 12t13 6h678q7 0 13-6t5-12z m-786 518q0-45-31-76t-76-31-76 31-31 76 31 76 76 31 76-31 31-76z m786-232v-108q0-7-5-12t-13-5h-678q-8 0-13 5t-5 12v108q0 7 5 12t13 5h678q7 0 13-5t5-12z m0 285v-107q0-7-5-12t-13-6h-678q-8 0-13 6t-5 12v107q0 8 5 13t13 5h678q7 0 13-5t5-13z" horiz-adv-x="1000" />

<glyph glyph-name="iconfont-xinlang" unicode="&#xe87f;" d="M695 357c-32 7-17 24-17 24s31 51-6 89c-46 46-158-6-158-6-42-14-31 6-25 39 0 39-13 105-127 66-113-39-211-177-211-177-68-91-59-161-59-161 17-156 181-198 309-208 134-11 315 46 370 164 55 117-45 164-76 170z m-284-290c-133-7-241 61-241 150 0 90 108 162 241 168 133 6 241-49 241-139 0-89-108-173-241-179z m-27 259c-134-16-118-142-118-142s-2-40 36-61c78-43 159-17 200 36 40 53 16 182-118 167z m-34-178c-25-3-45 12-45 33 0 21 18 43 43 46 29 2 48-14 48-35 0-21-21-41-46-44z m79 68c-8-6-18-5-23 2-5 8-3 20 6 26 10 7 20 5 24-2 5-8 2-19-7-26z m331 196c11 0 20 8 21 19 1 1 1 1 1 2 16 148-121 123-121 123-12 0-22-10-22-22 0-13 10-23 22-23 98 22 77-77 77-77 0-12 10-22 22-22z m-16 259c-47 11-96 1-110-1-1 0-2-1-3-1 0-1-1-1-1-1-13-4-23-16-23-31 0-18 14-32 32-32 0 0 17 2 29 6 12 5 110 4 158-78 27-61 12-101 10-107 0 0-6-16-6-31 0-18 14-29 32-29 14 0 27 2 30 27l1 0c52 175-64 258-149 278z" horiz-adv-x="1000" />

<glyph glyph-name="iconfont-yonghu" unicode="&#xe880;" d="M529 850q29 0 57-6t54-18 44-25 31-28q26-32 38-70t17-74q5-39 5-80 6-5 10-13 4-7 7-18t0-27q-2-21-8-34t-14-19q-9-8-19-11-5-17-10-32-5-13-12-25t-14-20q-19-15-31-25t-16-36q-3-15-2-30t8-31 23-30 44-25q25-10 54-18t57-18 50-26 30-42q5-16 8-40t2-47-3-45-11-32q-5-7-28-14t-58-14-77-11-85-9-83-5-68-2-67 2-80 5-81 8-73 10-56 10-29 10q-10 8-16 49t5 106q5 37 29 56t57 31 67 20 62 26q21 13 32 25t16 24 5 25-1 29q-2 23-16 37t-31 27q-8 7-14 20t-11 25q-5 15-10 32-7 2-14 7-6 5-13 14t-12 26q-5 17-4 31t5 24q4 11 13 21-1 38 4 75 4 32 15 69t31 66q19 28 43 46t48 27 49 14 47 3z" horiz-adv-x="1000" />

<glyph glyph-name="iconfont-renzhengyonghu" unicode="&#xe881;" d="M568 437q-45-19-83-50t-65-71-42-87-15-99q0-46 12-88t33-80l-24 0q-26 0-60 2t-70 5-72 7-65 8-50 9-26 9q-9 7-14 44t4 94q3 22 14 37t27 24 36 16 40 12 39 13 35 16q19 12 29 23t14 21 5 22-1 26q-2 20-14 32t-28 25q-7 6-13 17t-10 23q-4 13-9 27-6 2-12 6-5 5-11 13t-11 23-4 27 6 22q3 10 11 19 0 33 4 67 3 28 12 61t28 58q17 25 38 41t42 24 44 12 42 3q26 0 51-6t47-15 40-22 27-25q23-28 33-62t15-66q5-35 5-71 6-5 9-12 4-6 6-16t1-24q-2-19-8-30t-13-17q-8-7-17-10-1-5-3-12l-5-12q-1-6-4-13z m127-29q57 0 108-22t88-60 60-89 22-108-22-109-60-89-88-59-108-22q-59 0-110 22t-88 59-60 89-22 109 22 108 60 89 88 60 110 22z m162-224q6 17-4 32t-27 21-34 1-25-28q-4-15-8-28t-8-27-10-30-15-38q-8-23-25-21t-25 19q-10 17-18 38t-17 39-14 36-10 26q-7 14-24 15t-32-4-25-21-3-31q6-18 14-40t17-45 16-45 15-38q13-34 40-51t56-18 57 14 40 42q9 23 19 48t20 50 17 46 13 38z" horiz-adv-x="1000" />

<glyph glyph-name="iconfont-tianjiayonghu" unicode="&#xe882;" d="M745-66q-42 0-79 16t-66 44-44 66-16 79 16 80 44 65 66 43 79 16 80-16 65-43 43-65 16-80-16-79-43-66-65-44-80-16z m101 238l-74 0 0 69q0 14-9 24t-23 10-22-10-8-24l0-69-65 0q-14 0-24-10t-10-24 10-21 24-7l65 0 0-71q0-14 8-24t22-10 23 10 9 24l0 71 74 0 0-2q14 0 24 8t10 22-10 24-24 10z m-247 249q-4-16-8-29-4-11-10-22t-13-18q-9-7-12-15t-6-16-6-18-10-18q-23-30-34-58t-16-54-3-51 8-50q4-18 12-37t24-41 39-40 60-37q-24-5-56-9-27-3-66-6t-91-2q-26 0-60 2t-71 5-72 7-65 8-50 10-26 9q-9 8-14 44t3 96q5 33 27 51t50 27 61 19 55 23q19 12 29 23t14 21 4 23-1 26q-2 21-14 33t-27 24q-8 6-14 18t-10 23q-5 13-8 29-7 2-13 6-5 4-11 12t-11 24q-5 15-3 28t5 22q4 11 11 19 0 34 4 68 4 29 13 62t27 59q18 25 39 41t42 25 44 13 42 3q26 0 50-6t45-16 36-22 26-26q23-29 34-64t15-66q5-36 4-72 6-5 10-12 4-6 6-16t0-25q-2-19-8-30t-13-17q-8-7-17-10z" horiz-adv-x="1000" />

<glyph glyph-name="doc-text" unicode="&#xe883;" d="M819 638q16-16 27-42t11-50v-642q0-23-15-38t-38-16h-750q-23 0-38 16t-16 38v892q0 23 16 38t38 16h500q22 0 49-11t42-27z m-248 136v-210h210q-5 16-12 23l-175 175q-6 7-23 12z m215-853v572h-232q-23 0-38 15t-16 38v233h-429v-858h715z m-572 483q0 7 5 12t13 5h393q8 0 13-5t5-12v-36q0-8-5-13t-13-5h-393q-8 0-13 5t-5 13v36z m411-125q8 0 13-5t5-13v-36q0-8-5-13t-13-5h-393q-8 0-13 5t-5 13v36q0 8 5 13t13 5h393z m0-143q8 0 13-5t5-13v-36q0-8-5-13t-13-5h-393q-8 0-13 5t-5 13v36q0 8 5 13t13 5h393z" horiz-adv-x="857.1" />

<glyph glyph-name="chart-line" unicode="&#xe884;" d="M1143-7v-72h-1143v858h71v-786h1072z m-72 696v-242q0-12-10-17t-20 4l-68 68-353-353q-6-6-13-6t-13 6l-130 130-232-233-107 108 326 326q6 6 13 6t13-6l130-130 259 259-67 67q-9 9-5 20t17 11h243q7 0 12-5t5-13z" horiz-adv-x="1142.9" />

<glyph glyph-name="database" unicode="&#xe885;" d="M429 421q132 0 247 24t181 71v-95q0-38-57-71t-157-52-214-20-215 20-156 52-58 71v95q66-47 181-71t248-24z m0-428q132 0 247 24t181 71v-95q0-39-57-72t-157-52-214-19-215 19-156 52-58 72v95q66-47 181-71t248-24z m0 214q132 0 247 24t181 71v-95q0-38-57-71t-157-52-214-20-215 20-156 52-58 71v95q66-47 181-71t248-24z m0 643q116 0 214-19t157-52 57-72v-71q0-39-57-72t-157-52-214-19-215 19-156 52-58 72v71q0 39 58 72t156 52 215 19z" horiz-adv-x="857.1" />

<glyph glyph-name="book" unicode="&#xe886;" d="M682 594q18-8 18-28l0-562q0-14-12-25t-28-11q-46 0-46 36l0 522q0 12-12 18l-404 216q-32 10-68-10-44-20-56-44l408-228q18-8 18-28l0-550q0-22-18-28-6-4-16-4-14 0-20 4-8 6-202 127t-212 131q-26 18-26 34l-6 524q0 28 14 52 28 46 102 77t116 9z" horiz-adv-x="700" />

<glyph glyph-name="clipboard" unicode="&#xe887;" d="M678 819q65 0 110-46t46-110l0-625q0-65-46-111t-110-46l-522 0q-65 0-110 46t-46 111l0 625q0 65 46 110t110 46l522 0z m-418-104l0-52q0-21 16-37t37-16l208 0q22 0 37 16t15 37l0 52-313 0z m469-677l0 625q0 21-15 37t-36 15l-53 0 0-52q0-43-30-73t-74-31l-208 0q-43 0-74 31t-30 73l0 52-53 0q-21 0-37-15t-15-37l0-625q0-21 15-37t37-16l522 0q21 0 36 16t15 37z m-104 52l-416 0q-26 0-26 25 0 12 7 19t19 8l416 0q11 0 19-8t7-19q0-25-26-25z m0 157l-416 0q-11 0-19 7t-7 19q0 25 26 25l416 0q26 0 26-25 0-11-7-19t-19-7z m0 156l-416 0q-26 0-26 25 0 11 7 19t19 7l416 0q11 0 19-7t7-19q0-25-26-25z" horiz-adv-x="834" />

<glyph glyph-name="book-open" unicode="&#xe888;" d="M340 238l0-68-200 80 0 68z m0 208l0-68-200 80 0 68z m538 346q22-12 22-42l0-640q0-34-32-46l-398-160q-8-2-10-2t-5-1-5-1-5 1-5 1l-10 2-398 160q-32 12-32 46l0 640q0 30 22 42 22 16 46 6l382-154 382 154q24 10 46-6z m-478-788l0 560-320 128 0-560z m420 128l0 560-320-128 0-560z m-60 186l0-68-200-80 0 68z m0 208l0-68-200-80 0 68z" horiz-adv-x="900" />

<glyph glyph-name="doc-text-inv" unicode="&#xe889;" d="M819 584q8-7 16-20h-264v264q13-8 21-16z m-265-91h303v-589q0-23-15-38t-38-16h-750q-23 0-38 16t-16 38v892q0 23 16 38t38 16h446v-304q0-22 16-38t38-15z m89-411v36q0 8-5 13t-13 5h-393q-8 0-13-5t-5-13v-36q0-8 5-13t13-5h393q8 0 13 5t5 13z m0 143v36q0 7-5 12t-13 5h-393q-8 0-13-5t-5-12v-36q0-8 5-13t13-5h393q8 0 13 5t5 13z m0 143v35q0 8-5 13t-13 5h-393q-8 0-13-5t-5-13v-35q0-8 5-13t13-5h393q8 0 13 5t5 13z" horiz-adv-x="857.1" />

<glyph glyph-name="book-1" unicode="&#xe88a;" d="M915 583q22-32 10-72l-154-505q-10-36-42-60t-69-25h-515q-43 0-83 30t-55 74q-14 37-1 71 0 2 1 15t3 20q0 5-2 12t-2 11q1 6 5 12t9 13 9 13q13 21 25 51t17 51q2 6 0 17t0 16q2 6 9 15t10 13q12 20 23 51t14 51q1 5-1 17t0 16q2 7 12 17t13 13q10 14 23 47t16 54q0 4-2 14t-1 15q1 4 5 10t10 13 10 11q4 7 9 17t8 20 9 20 11 18 15 13 20 6 26-3l0-1q21 5 28 5h425q41 0 63-32t10-72l-152-506q-20-66-40-85t-72-20h-485q-15 0-21-8-6-9-1-24 14-39 81-39h515q16 0 31 9t19 23l168 550q4 13 3 32 21-8 33-24z m-594-1q-2-7 1-12t11-6h339q8 0 15 6t9 12l12 36q2 7-2 12t-11 6h-339q-7 0-14-6t-9-12z m-46-143q-3-7 1-12t11-6h339q7 0 14 6t10 12l11 36q3 7-1 13t-11 5h-339q-8 0-14-5t-10-13z" horiz-adv-x="928.6" />

<glyph glyph-name="chart-bar" unicode="&#xe88b;" d="M521 740l0-625-208 0 0 625q0 44 30 74t73 31q44 0 75-31t30-74z m260-207l0-418-208 0 0 418q0 42 30 73t75 30q42 0 73-30t30-73z m-521-157l0-261-207 0 0 261q0 43 30 73t73 31 74-31 30-73z m521-417q22 0 37-15t16-37-16-36-37-16l-728 0q-22 0-37 16t-16 36 16 37 37 15l728 0z" horiz-adv-x="834" />

<glyph glyph-name="chart-alt" unicode="&#xe88c;" d="M885 689l0-522-832 0 0 157q0 37 22 65l209 261q26 32 68 37t76-20l127-95 145 182q28 33 70 38t76-22q39-30 39-81z m0-678q21 0 37-15t16-36-16-37-37-16l-832 0q-22 0-37 16t-16 37 16 36 37 15l832 0z" horiz-adv-x="938" />

<glyph glyph-name="chart" unicode="&#xe88d;" d="M40 217q-34 28-39 70t22 76l209 260q26 33 68 38t76-19l127-96 145 181q28 34 70 39t77-23 38-70-22-76l-208-260q-26-32-68-38t-75 19l-128 97-146-182q-30-40-81-40-35 0-65 24z m13-284q-21 0-37 16t-15 37 15 36 37 15l729 0q21 0 37-15t16-36-16-37-37-16l-729 0z" horiz-adv-x="835" />

<glyph glyph-name="grade" unicode="&#xe88e;" d="M951 633c-20 2-47 3-78 4 1 32 1 62 0 87-5 71-95 64-96 2-1-21 0-53 2-87-25 0-49 0-69-1-73-2-66-91-2-89 20 1 47 2 76 4 2-38 5-72 7-90 4-47 68-57 73 8 2 20 4 52 6 86 35 2 66 4 84 6 48 5 47 65-3 70z m-320-359c15 1 25 2 30 2 47 6 47 79-13 80-9 0-28 0-52 0-68 160-136 318-143 333-21 43-46 57-65 54-5 0-9 1-13 1-8 0-15-1-22-3-3 0-7-2-10-3-2-1-4-2-6-3-14-7-28-22-39-46-17-39-79-187-139-335-24 0-45 0-58 0-78-1-108-122-8-117 6 0 12 1 19 1-41-101-76-186-86-213-34-85 88-127 119-48 13 32 53 144 98 269 84 6 182 12 263 18 47-128 90-243 107-288 30-80 157-55 126 41-4 12-52 126-108 257z m-350 81c33 92 65 183 87 245 3 3 8 5 15 1 25-70 57-157 89-246-61 0-129 0-191 0z" horiz-adv-x="1000" />

<glyph glyph-name="fanhui2" unicode="&#xe88f;" d="M969 350c0 259-210 469-469 469s-469-210-469-469 210-469 469-469 469 210 469 469z m-834 0c0 201 164 365 365 365s365-164 365-365-164-365-365-365-365 164-365 365z m470-221c25 24 25 64 0 88l-132 133 132 133c25 24 25 64 0 88-24 24-64 24-88 0l-177-177c-24-24-24-64 0-88l177-177c24-24 64-24 88 0z" horiz-adv-x="1000" />

<glyph glyph-name="huiyuan" unicode="&#xe890;" d="M806 415c-16-15-43-40-71-64-22-19-51-26-64 1-18 36-67 105-91 156-39 81-105 79-144 1-25-51-73-120-91-156-14-27-43-21-65-1-28 23-53 49-68 64-60 57-113 11-94-49 18-58 68-290 101-397 14-45 62-52 62-52h435c0 0 65 4 80 50 32 107 83 341 101 399 19 60-32 104-91 48z m-637 139c0 38-31 69-69 69s-69-31-69-69c0-38 31-69 69-69s69 31 69 69z m731 69c-38 0-69-31-69-69 0-38 31-69 69-69s69 31 69 69c0 38-31 69-69 69z m-400-13c46 0 83 37 83 82 0 46-37 83-83 83s-83-37-83-83c0-45 37-82 83-82z" horiz-adv-x="1000" />

<glyph glyph-name="wenke" unicode="&#xe891;" d="M500 227c83-64 149-108 198-133 48-24 130-54 246-88 36-11 55-19 55-24 0-6-10-12-29-18-18-6-56-16-112-31-56-14-97-21-121-21-25 0-45 4-61 12-15 8-50 39-105 91-55 53-97 96-126 130-57-66-123-112-198-139-75-28-143-41-202-41-29 0-44 5-44 16 0 15 30 30 90 47 60 17 114 41 162 72 49 32 90 72 124 122-69 76-120 118-154 126-51 13-77 26-77 38 0 9 13 16 39 21 26 4 47 7 62 7s29-3 38-7c10-5 25-17 45-37 20-19 49-45 86-76 22 54 33 105 33 154 0 18-2 35-5 50-116-20-190-35-222-44-31-9-56-13-74-13-18 0-37 6-56 20-19 13-29 23-29 30 0 7 23 13 68 18 45 4 129 19 252 44 122 24 204 44 246 58 42 15 74 22 95 22 22 0 45-8 70-22 26-15 38-29 38-41 0-21-34-32-104-33-14 0-41-2-81-7-41-5-81-11-122-19 54-26 81-48 81-65 0-9-6-20-19-35-12-14-25-40-38-78-13-38-29-74-49-106z m-138 561c88 0 142-12 164-36 21-23 32-49 32-77 0-14-5-26-14-35-10-9-22-14-36-14-31 0-70 23-117 68s-70 72-70 82c0 8 14 12 41 12z" horiz-adv-x="1000" />

<glyph glyph-name="like" unicode="&#xe892;" d="M280 437c20 6 38 8 54 8 16 0 30-2 40-8 10-5 16-11 16-19s-5-15-13-21c-9-7-21-13-37-17-16-4-36-10-60-18l1-150c71 33 116 49 134 49 6 0 9-1 9-4 0-11-28-35-84-73-98-67-159-114-185-142-15-16-26-24-35-24-11 0-34 13-68 39-35 26-52 42-52 50s5 12 15 15c10 3 29 6 58 9 28 2 67 15 117 38l-1 170c-11-2-23-3-34-3-12 0-28 4-48 12-21 9-32 15-32 21 0 5 12 10 36 14 24 5 50 12 78 22 0 86-5 142-15 168-30-1-54 3-72 12-19 8-28 15-28 20 0 5 11 10 34 13 57 10 108 26 154 47 20 9 36 13 48 13 12 0 27-3 44-9 17-6 26-14 26-23 0-18-36-37-107-58 16-9 24-17 24-25 0-7-2-15-6-23-4-9-7-20-9-32-1-13-2-37-2-71z m397-384c72 10 122 17 149 21 27 5 49 7 64 7 33 0 60-12 80-35 20-23 30-41 30-52 0-12-14-17-41-17-16 0-41 3-75 8-34 6-81 9-143 9-61 0-112-3-152-8-40-5-104-18-192-37-15-4-29-5-43-5-14 0-32 9-52 27-21 19-31 31-31 36s4 9 12 10c9 0 32 1 69 1 36 0 113 7 231 22l-1 115c-15-2-31-2-48-2-17 0-34 4-52 14-18 9-27 16-27 21 0 5 14 9 41 12 28 4 56 9 86 17 0 40-1 81-1 122l-56-6c-5-18-15-27-31-27-10 0-18 3-24 8-6 5-12 17-18 36-5 19-10 55-15 109-5 54-12 97-20 130s-17 56-30 69c-12 14-18 24-18 31 0 8 8 12 24 12 15 0 37-4 64-10 51 2 111 10 179 23 69 12 113 23 133 31 20 8 34 11 43 11 17 0 44-12 80-38 37-25 55-43 55-52 0-10-6-20-18-29-12-10-22-21-29-34-6-13-16-45-27-96-12-51-22-87-30-109-8-22-19-40-34-54-14-15-26-22-36-22-9 0-17 8-23 23-4 10-17 15-39 15-10 0-22-1-37-4l1-112c22 5 43 7 62 7s36-3 49-9c14-7 21-15 21-24 0-10-10-19-29-27-19-8-53-16-102-24l1-114z m-99 479c0 58-7 98-19 118-33-5-54-8-64-8 8-41 14-83 18-127 8 6 30 12 65 17z m2-139c0 29 0 57-1 84-11 0-24 3-37 8-14 4-23 8-27 11 4-25 7-62 10-112 23 5 41 7 55 9z m94 14c28 3 49 5 62 5l16-1c8 0 16 32 25 97 8 64 12 107 12 129 0 22-1 34-5 38-3 4-12 6-27 6-14 0-48-4-102-14 25-14 38-26 38-35 0-4-3-11-10-21-7-9-10-27-10-52 9 3 18 4 27 4 9 0 20-3 34-9 14-6 21-14 21-25 0-11-8-18-26-23-17-5-36-10-56-14l1-85z" horiz-adv-x="1000" />

<glyph glyph-name="iconfont-home" unicode="&#xe893;" d="M915 379l-371 367c-2 2-6 6-12 10-10 6-21 10-33 10-12 0-24-4-33-11-6-3-10-7-12-10l-370-366c-15-14-15-37 0-51 14-14 33-8 49 8l25 24 342 332 366-359c20-13 37-17 49-5 14 14 14 37 0 51z m-141 20c-17 0-30-14-30-31l0 0 0 0 0-342c0-17-14-31-32-31l-82 0 0 188c0 49-40 88-89 88l-83 0c-49 0-89-39-89-88l0-188-82 0c-18 0-32 14-32 31l0 342c0 17-14 31-31 31-17 0-30-14-31-31l0-346c0-49 40-88 89-88l138 0 11 0 0 10 0 235c0 17 14 31 31 31l75 0c17 0 31-14 31-31l0-235 0-10 10 0 138 0c50 0 89 39 89 88l0 346c0 17-14 31-31 31z" horiz-adv-x="1000" />

<glyph glyph-name="iconfont-pengyouquan" unicode="&#xe894;" d="M663 460l0 267c0 0-130 69-282 15l282-282z m25-156l0 412c0 0 154-70 197-240l-197-172z m-83-120l284 267c0 0 51-81-24-267l-260 0z m-145-34l384 0c0 0-46-125-212-177l-172 177z m-125 85l0-250c0 0 99-64 270-21l-270 271z m-222-13l194 175 0-397c0 0-117 41-194 222z m-5 28c0 0-45 144 18 268l267 0-285-268z m34 296c0 0 57 128 210 188l182-188-392 0z" horiz-adv-x="1000" />

<glyph glyph-name="iconfont-weixin" unicode="&#xe895;" d="M649 490c10 0 19-1 29-2-26 120-156 209-304 209-165 0-301-111-301-253 0-81 45-149 121-201l-30-89 105 52c37-7 68-15 105-15 10 0 19 0 28 1-6 20-9 41-9 63 0 130 113 235 256 235z m-162 81c23 0 38-15 38-37 0-23-15-38-38-38-23 0-45 15-45 38 0 22 22 37 45 37z m-211-75c-22 0-45 15-45 38 0 22 23 37 45 37 23 0 38-15 38-37 0-23-15-38-38-38z m647-238c0 119-120 216-255 216-143 0-256-97-256-216 0-119 113-216 256-216 30 0 60 8 90 15l83-45-23 75c60 45 105 104 105 171z m-338 37c-15 0-30 15-30 30 0 15 15 30 30 30 23 0 37-15 37-30 0-15-14-30-37-30z m165 0c-15 0-30 15-30 30 0 15 15 30 30 30 23 0 38-15 38-30 0-15-15-30-38-30z" horiz-adv-x="1000" />

<glyph glyph-name="chongxuan" unicode="&#xe896;" d="M976-126c-30-30-78-30-108 0l-186 185-156-156 0 421 421-1-157-156 186-186c30-29 30-78 0-107z m-81 502h-105v211c0 19-7 37-17 53h-36v36c-16 9-33 16-53 16h-421c-19 0-37-7-52-16v-36h-37c-9-16-16-34-16-53v-421c0-20 7-37 16-53h37v-36c15-10 33-16 52-16h211v-106h-263v-52h-211v210h53v527h-53v210h211v-53h526v53h210v-210h-52v-264z" horiz-adv-x="1000" />

<glyph glyph-name="sort" unicode="&#xe897;" d="M571 243q0-15-10-25l-250-250q-11-11-25-11t-25 11l-250 250q-11 10-11 25t11 25 25 11h500q14 0 25-11t10-25z m0 214q0-14-10-25t-25-11h-500q-15 0-25 11t-11 25 11 25l250 250q10 11 25 11t25-11l250-250q10-10 10-25z" horiz-adv-x="571.4" />

<glyph glyph-name="help-1" unicode="&#xe898;" d="M494 740q86-62 86-184 0-64-42-124-12-20-88-80l-46-30q-40-34-48-60-6-16-8-44 0-14-16-14l-128 0q-16 0-16 12 4 98 28 124 16 22 48 48t56 42l24 14q22 16 34 34 28 44 28 70 0 40-26 78-28 36-92 36-68 0-94-44-28-42-28-92l-166 0q6 162 114 232 70 42 166 42 130 0 214-60z m-216-636q44 0 73-30t27-74q-2-46-32-73t-74-25q-44 0-73 29t-27 75 32 73 74 25z" horiz-adv-x="580" />

<glyph glyph-name="tanhao" unicode="&#xe899;" d="M500 819c-259 0-469-210-469-469s210-469 469-469 469 210 469 469-210 469-469 469z m0-834c-201 0-365 164-365 365s164 365 365 365 365-164 365-365-164-365-365-365z m-1 220c-38-4-58-24-62-62 4-33 25-51 62-55 39 4 60 22 64 55-4 38-25 58-64 62z m0 407c-41 0-62-27-62-82 0-8 1-21 3-41 2-10 3-16 3-20l35-217h44l35 217c0 4 1 10 3 20 2 20 3 33 3 41 0 55-21 82-64 82z" horiz-adv-x="1000" />

<glyph glyph-name="arrows-cw-2" unicode="&#xe89a;" d="M843 261q0-3 0-4-36-150-150-243t-267-93q-81 0-157 31t-136 88l-72-72q-11-11-25-11t-25 11-11 25v250q0 14 11 25t25 11h250q14 0 25-11t10-25-10-25l-77-77q40-37 90-57t105-20q74 0 139 37t104 99q6 10 29 66 5 13 17 13h107q8 0 13-6t5-12z m14 446v-250q0-14-10-25t-26-11h-250q-14 0-25 11t-10 25 10 25l77 77q-82 77-194 77-75 0-140-37t-104-99q-6-10-29-66-5-13-17-13h-111q-7 0-13 6t-5 12v4q36 150 151 243t268 93q81 0 158-31t137-88l72 72q11 11 25 11t26-11 10-25z" horiz-adv-x="857.1" />

<glyph glyph-name="checkbox-yes" unicode="&#xe89b;" d="M875 850h-750c-69 0-125-56-125-125v-750c0-69 56-125 125-125h750c69 0 125 56 125 125v750c0 69-56 125-125 125z m-19-360l-371-370c-26-25-68-25-93 0l-186 185c-26 25-26 67 0 92 25 26 67 26 93 0l139-138 325 323c25 25 67 25 93 0 25-26 25-67 0-92z" horiz-adv-x="1000" />

<glyph glyph-name="checkbox-none" unicode="&#xe89c;" d="M875 850h-750c-69 0-125-56-125-125v-750c0-69 56-125 125-125h750c69 0 125 56 125 125v750c0 69-56 125-125 125z m63-844c0-52-42-94-94-94h-688c-51 0-93 42-93 94v688c0 52 42 94 93 94h688c52 0 94-42 94-94v-688z" horiz-adv-x="1000" />

<glyph glyph-name="radio-yes" unicode="&#xe89d;" d="M500 850c-276 0-500-224-500-500s224-500 500-500 500 224 500 500-224 500-500 500z m0-687c-104 0-187 83-187 187s83 188 187 188 188-84 188-188-84-187-188-187z" horiz-adv-x="1000" />

<glyph glyph-name="radio-none" unicode="&#xe89e;" d="M500 850c-276 0-500-224-500-500s224-500 500-500 500 224 500 500-224 500-500 500z m0-938c-242 0-437 196-437 438s195 438 437 438 438-196 438-438-196-438-438-438z" horiz-adv-x="1000" />

<glyph glyph-name="down" unicode="&#xe89f;" d="M0 283q0 25 18 43t44 18 42-18l244-243v642q0 25 18 43t43 18 43-18 18-43v-642l243 243q18 18 43 18t43-18q18-18 18-43t-18-44l-390-390-391 390q-18 20-18 44z" horiz-adv-x="817.4" />

<glyph glyph-name="home-outline" unicode="&#xe8a0;" d="M1108 422q38-30 38-80 0-42-30-73t-75-31l-51 0 0-312q0-44-31-75t-74-30l-625 0q-42 0-73 30t-31 75l0 312-52 0q-44 0-74 31t-30 73q0 46 36 79 79 66 204 174t211 181 88 75l34 29 35-29q1-1 86-75t211-181 203-173z m-430-496l0 260-209 0 0-260 209 0z m207 416l156 0q-231 194-468 400-238-206-469-400l156 0 0-416 156 0 0 312 313 0 0-312 156 0 0 416z" horiz-adv-x="1146" />

<glyph glyph-name="print" unicode="&#xe8a1;" d="M214-7h500v143h-500v-143z m0 357h500v214h-89q-22 0-38 16t-16 38v89h-357v-357z m643-36q0 15-10 25t-26 11-25-11-10-25 10-25 25-10 26 10 10 25z m72 0v-232q0-7-6-12t-12-6h-125v-89q0-22-16-38t-38-16h-536q-22 0-37 16t-16 38v89h-125q-7 0-13 6t-5 12v232q0 44 32 76t75 31h36v304q0 22 16 38t37 16h375q23 0 50-12t42-26l85-85q15-16 27-43t11-49v-143h35q45 0 76-31t32-76z" horiz-adv-x="928.6" />

<glyph glyph-name="phone" unicode="&#xe8a2;" d="M786 158q0-15-6-39t-12-38q-11-28-68-60-52-28-103-28-16 0-30 2t-32 7-26 8-31 11-28 10q-54 20-97 47-72 44-148 120t-120 148q-27 43-46 97-2 5-10 28t-12 31-8 26-7 32-2 29q0 52 29 104 31 57 59 68 14 6 38 12t39 6q8 0 12-2 10-3 30-43 6-10 16-30t20-35 17-30q2-2 10-14t12-20 4-16q0-11-16-28t-35-30-34-30-16-25q0-5 3-13t4-11 8-14 7-10q42-77 97-132t131-97q1 0 10-6t14-8 11-5 13-2q10 0 25 15t30 35 31 35 28 16q7 0 15-4t20-12 14-10q14-8 30-17t35-20 31-17q39-19 42-29 2-4 2-12z" horiz-adv-x="785.7" />

<glyph glyph-name="resize-full" unicode="&#xe8a3;" d="M784 111l127 128 0-336-335 0 128 130-128 127 79 79z m-431 686l-129-127 128-127-80-80-126 128-128-129 0 335 335 0z m0-637l-129-127 129-130-335 0 0 336 128-128 128 128z m558 637l0-335-127 129-128-128-79 80 127 127-128 127 335 0z" horiz-adv-x="928" />

<glyph glyph-name="resize-small" unicode="&#xe8a4;" d="M704 33l-128-130 0 336 335 0-127-128 127-129-79-79z m-686 429l128 129-127 126 79 79 126-126 129 127 0-335-335 0z m0-480l128 129-128 128 335 0 0-336-129 130-127-130z m558 480l0 335 128-127 128 126 78-79-126-126 127-129-335 0z" horiz-adv-x="928" />

<glyph glyph-name="qq" unicode="&#xe8a5;" d="M151 400q-5 11-5 29 0 11 6 28t14 25q-1 12 4 29t13 24q0 78 51 161t121 117q78 37 181 37 75 0 149-31 27-11 50-26t40-32 30-38 24-41 18-47 14-50 12-55l1-3q31-46 31-83 0-8-5-23t-5-21q0 0 0-2t2-3 1-1q43-64 68-120t24-116q0-24-11-56t-31-32q-5 0-11 4t-10 10-11 14-9 15-7 15-5 9q-1 1-2 1l-3-2q-33-86-74-125 12-11 35-21t38-23 20-37q-1-2-2-9t-4-10q-36-54-169-54-29 0-61 5t-55 11-58 17q-9 3-13 4-8 2-26 3t-22 0q-23-25-71-36t-94-11q-20 0-39 1t-52 5-56 11-42 23-18 35q0 23 6 33t23 28q6 1 22 7t28 6q2 0 8 2 1 1 1 2l-1 2q-27 6-60 58t-41 88l-3 1q-2 0-7-11-10-23-30-41t-43-21h-1q-2 0-3 2t-3 3q-13 31-13 56 0 154 141 260z" horiz-adv-x="1000" />

<glyph glyph-name="fanzhuan" unicode="&#xe8a6;" d="M531 244c-18 19-43 19-62 0l-238-238c-18-19-18-44 0-62h538c19 18 19 43 0 62l-238 238z m-62 212c12-6 19-12 31-12s25 6 31 12l238 238c19 19 19 44 0 62h-538c-18-18-18-43 0-62l238-238z m212 238l-181-181-175 181h356z m163-313h-688c-18 0-31-12-31-31 0-19 13-31 31-31h688c19 0 31 12 31 31 0 19-12 31-31 31z" horiz-adv-x="1000" />

<glyph glyph-name="icon-v" unicode="&#xe8a7;" d="M82 742l279-784h140l417 784h-181l-295-533-173 533h-187z" horiz-adv-x="1000" />

<glyph glyph-name="blowdown-1" unicode="&#xe8a8;" d="M909-46l-178 178c75 71 123 171 123 283 0 212-173 386-386 386s-386-174-386-387 173-386 386-386c78 0 151 24 212 64l183-183c13-13 33-13 46 0 12 12 12 33 0 45z m-441 139c-178 0-322 144-322 321s144 322 322 322 322-144 322-322-145-321-322-321z m193 354h-386c-18 0-32-15-32-33 0-17 14-32 32-32h386c18 0 32 15 32 32 0 18-14 33-32 33z" horiz-adv-x="1000" />

<glyph glyph-name="blowup-1" unicode="&#xe8a9;" d="M909-46l-178 178c75 71 123 171 123 283 0 212-173 386-386 386s-386-174-386-387 173-386 386-386c78 0 151 24 212 64l183-183c13-13 33-13 46 0 12 12 12 33 0 45z m-441 139c-178 0-322 144-322 321s144 322 322 322 322-144 322-322-145-321-322-321z m193 354h-161v161c0 17-14 32-32 32-18 0-32-15-32-32v-161h-161c-18 0-32-15-32-33 0-17 14-32 32-32h161v-161c0-17 14-32 32-32 18 0 32 15 32 32v161h161c18 0 32 15 32 32 0 18-14 33-32 33z" horiz-adv-x="1000" />

<glyph glyph-name="brush-1" unicode="&#xe8aa;" d="M837 688c-102 103-282 103-384 0l-369-369v-384h384l369 369c106 106 106 278 0 384z m-674-608v194l260-260h-194l-66 66z m50 257l231 230 272-272-231-231-272 273z m568 23l-9-9-272 272 9 9c72 72 200 72 272 0 75-75 75-197 0-272z" horiz-adv-x="1000" />

<glyph glyph-name="half-right-1" unicode="&#xe8ab;" d="M963 655c-15 15-39 15-54 0l-223-223-176 176c-15 15-39 15-54 0s-15-39 0-54l176-176-251-252-290 290c-15 15-39 15-54 0-15-15-15-39 0-54l316-317c8-7 18-11 27-11s20 4 28 11l278 279 171-171c7-7 17-11 27-11s19 4 27 11c15 15 15 39 0 54l-171 171 223 223c15 15 15 39 0 54z" horiz-adv-x="1000" />

<glyph glyph-name="history-1" unicode="&#xe8ac;" d="M946 373c0 246-200 446-446 446s-446-200-446-446c0-120 47-232 132-316 15-15 40-15 54 0 15 15 15 39 0 54-70 70-109 163-109 262 0 203 166 369 369 369s369-166 369-369c0-188-142-342-325-364v37c-5 6-14 6-20 0l-90-70c-6-6-6-15 0-20l90-71c6-5 15-5 20 0v45c225 22 402 212 402 443z m-446 244c-21 0-38-18-38-39v-301h245c21 0 38 17 38 38s-17 39-38 39h-169v224c0 21-17 39-38 39z" horiz-adv-x="1000" />

<glyph glyph-name="right-1" unicode="&#xe8ad;" d="M986 670c-16 16-41 16-57 0l-554-554-304 303c-16 16-41 16-57 0-16-16-16-41 0-57l332-332c8-8 18-12 29-12 10 0 20 4 28 12l583 583c16 16 16 41 0 57z" horiz-adv-x="1000" />

<glyph glyph-name="rubber-1" unicode="&#xe8ae;" d="M950 486l-282 282c-44 44-121 44-165 0l-453-453c-45-45-45-119 0-164l173-173c51-51 119-79 192-79 72 0 141 28 192 79l343 343c22 22 34 52 34 83s-12 60-34 82z m-672-453l-173 173c-15 15-15 39 0 54l95 95 335-335c-74-59-190-55-257 13z m617 343l-304-303-336 337 303 303c7 8 17 12 27 12 11 0 21-4 28-12l282-282c15-15 15-39 0-55z" horiz-adv-x="1000" />

<glyph glyph-name="squre-1" unicode="&#xe8af;" d="M785-54h-570c-66 0-119 53-119 119v570c0 66 53 119 119 119h570c66 0 119-53 119-119v-570c0-66-53-119-119-119z m-570 729c-22 0-40-18-40-40v-570c0-22 18-40 40-40h570c22 0 40 18 40 40v570c0 22-18 40-40 40h-570z" horiz-adv-x="1000" />

<glyph glyph-name="video" unicode="&#xe8b0;" d="M500 816c-257 0-466-209-466-466s209-466 466-466 466 209 466 466-209 466-466 466z m0-858c-216 0-391 176-391 392 0 216 175 392 391 392s392-176 392-392c0-216-176-392-392-392z m-48 569c-15 14-39 14-53 0l0-354c14-14 38-14 53 0l190 151c14 14 14 38 0 52l-190 151z" horiz-adv-x="1000" />

<glyph glyph-name="word-1" unicode="&#xe8b1;" d="M874-5l-341 748c-12 27-54 27-66 0l-341-748c-9-20-1-44 17-54 19-10 41-2 50 18l107 235c2-1 5-2 7-2h386c2 0 5 1 7 2l107-235c6-14 20-22 33-22 6 0 11 1 17 4 18 10 26 34 17 54z m-538 278l164 360 164-360h-328z" horiz-adv-x="1000" />

<glyph glyph-name="wrong-1" unicode="&#xe8b2;" d="M562 350l289 290c17 17 17 44 0 61-17 17-44 17-61 0l-290-289-290 289c-17 17-44 17-61 0s-17-44 0-61l290-290-290-290c-17-17-17-44 0-61 8-9 19-13 30-13 12 0 23 4 31 13l290 290 290-290c8-9 20-13 31-13s22 4 30 13c17 17 17 44 0 61l-289 290z" horiz-adv-x="1000" />

<glyph glyph-name="analysis" unicode="&#xe8b3;" d="M844 382c0-1 0-1 0-1h-313v314c173 0 313-140 313-313z m-362 276c-180 0-326-146-326-326s146-327 326-327 327 147 327 327h-327v326z" horiz-adv-x="1000" />

<glyph glyph-name="class_trends" unicode="&#xe8b4;" d="M195 394h174v-393h-174v393z m220-393h174v698h-174v-698z m216 523v-523h174v523h-174z" horiz-adv-x="1000" />

<glyph glyph-name="practice_list" unicode="&#xe8b5;" d="M762 677h-523c-24 0-44-20-44-44v-566c0-24 20-44 44-44h523c23 0 43 20 43 44v566c0 24-20 44-43 44z m-440-174h349v-44h-349v44z m218-305h-218v43h218v-43z m130 130h-349v44h349v-44z" horiz-adv-x="1000" />

<glyph glyph-name="student_grow" unicode="&#xe8b6;" d="M902 449c-30-31-74-39-112-26l-137-185c31-43 28-102-11-141-42-42-111-42-154 0-39 40-42 103-7 146l-59 90c-23-7-48-6-71 3l-85-103c27-42 23-98-14-135-42-43-111-43-154-1-43 42-43 111-1 154 32 32 79 40 119 24l85 103c-27 42-23 99 14 136 43 43 112 43 154 0 40-40 42-102 8-145l59-90c21 6 44 5 65-2l137 185c-31 43-28 102 10 141 43 42 112 42 154 0s43-112 0-154z" horiz-adv-x="1000" />

<glyph glyph-name="exam" unicode="&#xe8b7;" d="M775-88h-550c-56 0-100 44-100 94v625c0 50 44 94 100 94h394c19 0 37-12 37-31s-18-31-37-31h-394c-19 0-37-13-37-32v-625c0-19 18-31 37-31h550c19 0 38 12 38 31v494c0 19 12 38 31 38s31-19 31-38v-494c0-50-44-94-100-94z m-175 513l319 294c12 12 19 37 6 50s-37 6-50-6l-319-294c-12-13-18-38-6-50 13-13 38-6 50 6z m-131 19c0 19-19 31-38 31h-87c-13 0-31-12-31-31s18-31 31-31h87c19 0 38 12 38 31z m187-188c0 19-18 32-37 32h-275c-13 0-31-13-31-32s18-31 31-31h275c19 0 37 13 37 31z" horiz-adv-x="1000" />

<glyph glyph-name="subject" unicode="&#xe8b8;" d="M813 788h-625c-38 0-63-25-63-63v-750c0-38 25-63 63-63h625c37 0 62 25 62 63v750c0 38-25 63-62 63z m-125-63v-169l-32 38c-6 6-18 12-31 12-12 0-19-6-25-12l-37-44v175h125z m-500-750v750h62v-750h-62z m625 0h-500v750h187v-250c0-12 6-25 19-31 6 0 6 0 12 0 7 0 19 6 25 12l69 75 69-75c6-6 12-12 31-12 13 0 25 6 25 31v250h63v-750z" horiz-adv-x="1000" />

<glyph glyph-name="fromks" unicode="&#xe8b9;" d="M794 756h-588c-43 0-75-31-75-75v-662c0-44 32-75 75-75h594c44 0 75 31 75 75v662c-6 44-37 75-81 75z m-256-625h-257c-18 0-37 19-37 38s19 37 37 37h257c18 0 37-18 37-37s-19-38-37-38z m181 182h-438c-25 0-37 18-37 37s19 38 37 38h444c19 0 38-19 38-38 0-19-19-37-44-37z m0 187h-438c-25 0-37 13-37 38s19 37 37 37h444c19 0 38-19 38-37s-19-38-44-38z" horiz-adv-x="1000" />

<glyph glyph-name="fromzdy" unicode="&#xe8ba;" d="M731-69c-12 0-18 0-31 6l-200 101-206-101c-19-12-50-6-69 7-19 12-31 37-25 62l44 219-163 150c-18 19-25 44-12 69 6 25 25 37 50 44l225 43 100 207c12 18 31 31 56 31 25 0 44-13 56-38l100-206 225-37c25-7 44-19 50-44 7-25 0-50-18-69l-157-150 44-219c6-25-6-50-25-62-12-7-25-13-44-13l0 0z" horiz-adv-x="1000" />

<glyph glyph-name="link-1" unicode="&#xe8bb;" d="M925 563l-212 212c-19 19-50 19-69 0l-213-212c-18-19-18-50 0-69l38-38 212 213 144-144-219-212 38-38c19-19 50-19 69 0l212 213c19 25 19 56 0 75l0 0 0 0z m-387-319l-213-213-144 144 213 213-38 31c-18 19-50 19-68 0l-213-213c-19-18-19-50 0-68l213-213c18-19 50-19 68 0l213 213c19 18 19 50 0 68l-31 38 0 0 0 0 0 0z m-182-38c19-18 50-18 69 0l213 213c18 19 18 50 0 69-19 18-50 18-69 0l-213-207c-18-18-18-50 0-75l0 0z m0 0" horiz-adv-x="1000" />
</font>
</defs>
</svg>
